<svg width="40" height="40" viewBox="0 0 40 40" fill="none" xmlns="http://www.w3.org/2000/svg">
<path d="M7.84373 5.53125L12.0312 5.5625C10.5 7.09375 9.59374 9.0625 9.28124 11.2812L7.68748 11.25C5.96873 11.1875 4.62498 9.90625 4.65623 8.34375C4.65623 6.75 6.06248 5.53125 7.84373 5.53125ZM20.4062 29.6562C20.6875 30.3438 22.5625 34.1563 22.5625 34.1563H17.2187C17.2187 34.1563 18.9375 30.5625 19.3125 29.6562C19.625 28.9687 20.0937 28.9375 20.4062 29.6562Z" fill="black"/>
<path d="M35.9062 14.9687C35.5625 16.3125 34.1875 17.3125 32.5 17.3125H30.9375C30.8438 17.3437 30.7812 17.4062 30.8125 17.5V34.1562H27.9688L22.5 22.8437C23.0625 22.2187 23.4062 21.375 23.4062 20.4687C23.4062 18.9687 22.5312 17.625 21.2188 17.0937V15.5625C21.2188 14.9062 20.6562 14.4375 20 14.4375H19.9375C19.2813 14.4375 18.7188 15 18.7188 15.6562V17.0937C17.2812 17.5625 16.2188 18.9062 16.2188 20.5312C16.2188 21.4687 16.5938 22.3437 17.1875 22.9687L11.875 34.1875H7.21875C5.4375 34.1875 4.03125 32.75 4.03125 30.9687V9.28121C4.03125 9.28121 4.03125 9.09371 4.0625 9.28121C4.3125 10.7812 5.625 11.9375 7.21875 11.9687H31.25C31.2188 11.9687 35.8125 11.5625 35.9062 14.9687Z" fill="black"/>
<path d="M19.7812 18.6875C20.75 18.6875 21.5625 19.5 21.5313 20.5C21.5313 21.4688 20.7188 22.2812 19.7188 22.25C18.75 22.25 17.9688 21.4375 17.9688 20.4688C17.9688 20 18.1563 19.5625 18.5 19.2188C18.875 18.875 19.3125 18.6875 19.7812 18.6875ZM20.5 17.6562V15.7812C20.5 15.5625 20.4062 15.375 20.2188 15.2812C19.9375 15.125 19.5938 15.2188 19.4375 15.5C19.375 15.5938 19.3438 15.6875 19.375 15.8125V17.625C17.8125 17.875 16.7188 19.3438 16.9688 20.9375V20.9688C17.0938 21.7188 17.5 22.4062 18.125 22.8438L11.4688 37.125C11.2188 37.625 11.25 38.25 11.5938 38.7188C12.0938 39.4375 13.0625 39.625 13.7812 39.125C14.0312 38.9688 14.2188 38.7188 14.3438 38.4688L18.75 28.9062C19.0312 28.2812 19.7813 28 20.4375 28.3125C20.6875 28.4375 20.9063 28.6562 21.0313 28.9062L25.5625 38.375C25.9375 39.1562 26.875 39.4688 27.6562 39.0938C28.4375 38.7188 28.75 37.7812 28.375 37L21.5625 22.7812C22.8125 21.7812 23.0313 19.9375 22.0312 18.6875C21.6562 18.1875 21.125 17.8438 20.5 17.6562ZM24.875 4.03125H24.8438L26.5 1.15625C26.5938 1 26.5312 0.8125 26.4062 0.6875C26.25 0.625 26.0938 0.65625 26 0.78125L24.25 3.75C21.5312 2.53125 18.4062 2.53125 15.6562 3.75L13.9688 0.8125C13.9063 0.71875 13.7813 0.625 13.6563 0.625C13.5313 0.625 13.4063 0.6875 13.3438 0.8125C13.2813 0.9375 13.2813 1.0625 13.3438 1.15625L15.0312 4.03125C12.2812 5.5625 10.4688 8.1875 10.0312 11.25H29.9688C29.5 8.1875 27.625 5.5625 24.875 4.03125ZM16 8.75L15.875 8.875C15.7188 9.03125 15.5 9.125 15.2813 9.125H15.3125C14.8438 9.125 14.4688 8.75 14.4688 8.3125V8.28125C14.4688 8.0625 14.5625 7.84375 14.7188 7.6875C15 7.34375 15.5312 7.28125 15.875 7.5625C16.2812 7.84375 16.3125 8.375 16 8.75ZM24.5625 9.0625C24.0938 9.09375 23.7188 8.71875 23.7188 8.25V8.21875C23.7188 8 23.8125 7.78125 23.9688 7.625C24.2812 7.3125 24.8125 7.3125 25.1562 7.625C25.3125 7.78125 25.4063 8 25.4063 8.21875C25.4063 8.71875 25.0312 9.0625 24.5625 9.0625ZM33.0312 18.125H31.7188C31.6562 18.1562 31.5938 18.2188 31.5938 18.3125V39.0938C31.5938 39.1875 31.6562 39.25 31.75 39.25H33.125C34.7188 39.25 36 37.9375 36 36.375C36 36.375 35.9688 17.2812 36 16.5625C36.0312 15.8125 35.8438 16.3438 35.7812 16.5C35.3125 17.5 34.2812 18.1562 33.0938 18.1562H33.0312V18.125Z" fill="black"/>
<path d="M19.7813 21.4687C20.3335 21.4687 20.7813 21.021 20.7813 20.4688C20.7813 19.9165 20.3335 19.4688 19.7813 19.4688C19.229 19.4688 18.7812 19.9165 18.7812 20.4688C18.7812 21.021 19.229 21.4687 19.7813 21.4687Z" fill="black"/>
</svg>
