<svg width="40" height="40" viewBox="0 0 40 40" fill="none" xmlns="http://www.w3.org/2000/svg">
<path d="M26.79 28.1C25.59 29.1267 23.195 29.825 20.4367 29.825C17.05 29.825 14.2117 28.7717 13.4583 27.3533C13.19 28.1667 13.1283 29.0967 13.1283 29.69C13.1283 29.69 12.9517 32.6067 14.98 34.6367C14.98 33.5833 15.835 32.7283 16.8883 32.7283C18.6933 32.7283 18.6917 34.3033 18.69 35.5817V35.6967C18.69 37.6367 19.875 39.2983 21.5617 40C21.302 39.4656 21.1675 38.8791 21.1683 38.285C21.1683 36.435 22.255 35.7467 23.5183 34.9467C24.5217 34.3083 25.6383 33.6017 26.4067 32.18C26.821 31.4155 27.0375 30.5595 27.0367 29.69C27.0369 29.1505 26.9537 28.6141 26.79 28.1ZM25.9183 1C26.245 1.40667 26.4117 1.95333 26.745 3.04833L34.025 26.96C31.2906 25.541 28.3557 24.5474 25.3217 24.0133L20.5833 8C20.5454 7.87228 20.4672 7.76027 20.3603 7.68074C20.2534 7.6012 20.1237 7.55842 19.9904 7.5588C19.8572 7.55917 19.7277 7.60268 19.6212 7.68282C19.5148 7.76295 19.4372 7.8754 19.4 8.00333L14.7167 24.0083C11.6692 24.5401 8.72108 25.5355 5.97501 26.96L13.29 3.045C13.6233 1.95167 13.79 1.405 14.1183 1C14.4068 0.642388 14.782 0.364664 15.2083 0.193333C15.6917 0 16.2617 0 17.405 0H22.63C23.7733 0 24.3467 0 24.83 0.195C25.2549 0.366419 25.6306 0.643508 25.9183 1Z" fill="black"/>
</svg>
