<svg width="472" height="357" viewBox="0 0 472 357" fill="none" xmlns="http://www.w3.org/2000/svg">
<g clip-path="url(#clip0_256_2)">
<path d="M274.939 62.9349C283.785 62.9349 290.957 55.4773 290.957 46.2778C290.957 37.0783 283.785 29.6207 274.939 29.6207C266.093 29.6207 258.922 37.0783 258.922 46.2778C258.922 55.4773 266.093 62.9349 274.939 62.9349Z" fill="#F2F2F2"/>
<path d="M399.191 310.146C422.999 291.287 434.37 259.598 427.251 229.369C427.074 228.618 426.888 227.868 426.691 227.121C421.971 209.177 410.295 192.122 393.278 186.389C378.988 181.575 363.392 185.277 348.485 183.362C319.222 179.604 296.534 154.981 280.571 129.201C264.608 103.42 252.34 74.5622 231.128 53.2636C196.164 18.1565 139.129 10.5979 95.7782 33.45C52.4278 56.3022 24.8141 107.002 25.9917 157.53C27.1694 208.058 56.0137 256.367 97.9027 281.997C113.291 291.413 131.089 298.083 148.802 295.749C164.171 293.724 178.135 285.136 193.432 282.586C217.482 278.578 241.379 289.886 262.18 303.063C282.982 316.241 303.075 331.86 326.712 337.969C349.665 343.901 378.101 326.851 399.191 310.146Z" fill="#F2F2F2"/>
<path d="M364.984 34.5111C364.463 34.1492 363.935 33.8061 363.413 33.4568C348.326 23.4227 332.156 15.2711 315.236 9.17049L311.313 65.4538H286.442V0.954451C284.876 0.617575 283.298 0.299415 281.721 -3.05176e-05V65.4538H252.164C235.893 65.4538 220.289 58.7319 208.783 46.767C197.278 34.8021 190.814 18.5742 190.814 1.65323C189.231 2.00882 187.659 2.38931 186.087 2.79481V65.4538H162.014L158.277 11.7844C140.889 18.7192 124.382 27.8389 109.122 38.9404C108.858 39.1275 108.594 39.3209 108.336 39.5081C107.011 40.475 105.703 41.4607 104.401 42.4589V257.18H175.349L174.096 239.12L167.197 139.96H306.124L299.225 239.12L297.972 257.18H368.134V36.6821C367.09 35.9459 366.04 35.2223 364.984 34.5111ZM186.087 123.584H166.057L162.356 70.3697H186.087V123.584ZM281.721 123.584H248.079V122.529C248.079 122.022 247.983 121.521 247.797 121.052C247.61 120.584 247.336 120.159 246.991 119.801C246.646 119.443 246.237 119.159 245.787 118.966C245.336 118.772 244.853 118.673 244.366 118.674H229.741C229.254 118.674 228.772 118.773 228.322 118.967C227.872 119.161 227.463 119.445 227.119 119.803C226.775 120.161 226.502 120.586 226.315 121.054C226.129 121.522 226.033 122.023 226.034 122.529V123.584H190.814V70.3697H281.721V123.584ZM286.442 123.584V70.3697H310.971L307.27 123.584H286.442Z" fill="#3F3D56"/>
<path d="M-2.00272e-05 270.93C5.21132 277.352 10.848 283.386 16.8687 288.99L455.131 289.614C461.152 284.01 466.789 277.975 472 271.554L-2.00272e-05 270.93Z" fill="#3F3D56"/>
<path d="M297.2 213.1V266.566C297.201 267.247 297.461 267.901 297.924 268.382C298.388 268.864 299.016 269.135 299.671 269.136H375.859C376.514 269.135 377.142 268.864 377.606 268.382C378.069 267.901 378.329 267.247 378.33 266.566V213.1C378.328 212.419 378.067 211.767 377.604 211.286C377.141 210.805 376.513 210.534 375.859 210.533H299.671C299.016 210.534 298.389 210.805 297.926 211.286C297.463 211.767 297.202 212.419 297.2 213.1Z" fill="#3F3D56"/>
<path d="M298.987 213.765V265.906C298.988 266.27 299.127 266.619 299.375 266.877C299.622 267.134 299.958 267.279 300.308 267.28H375.225C375.575 267.279 375.91 267.134 376.158 266.877C376.405 266.619 376.545 266.27 376.545 265.906V213.765C376.545 213.401 376.406 213.051 376.159 212.793C375.911 212.535 375.575 212.39 375.225 212.389H300.308C299.957 212.39 299.622 212.535 299.374 212.793C299.126 213.051 298.987 213.401 298.987 213.765Z" fill="#70979A"/>
<path d="M295.607 276.993C295.746 277.175 295.924 277.322 296.126 277.422C296.327 277.523 296.549 277.574 296.773 277.573H378.352C378.575 277.573 378.795 277.521 378.996 277.421C379.198 277.321 379.375 277.176 379.516 276.996C379.656 276.815 379.756 276.605 379.809 276.379C379.861 276.154 379.865 275.919 379.819 275.692L378.553 269.437C378.5 269.181 378.387 268.944 378.224 268.746C378.061 268.548 377.852 268.395 377.618 268.302C377.448 268.233 377.268 268.198 377.085 268.198H298.034C297.852 268.198 297.671 268.233 297.501 268.302C297.267 268.395 297.058 268.548 296.895 268.746C296.732 268.944 296.619 269.181 296.566 269.437L295.3 275.692C295.255 275.919 295.259 276.153 295.312 276.379C295.365 276.604 295.466 276.814 295.607 276.993Z" fill="#2F2E41"/>
<path d="M374.286 270.892H376.213C376.375 270.892 376.506 270.756 376.506 270.588V269.629C376.506 269.461 376.375 269.325 376.213 269.325H374.286C374.124 269.325 373.993 269.461 373.993 269.629V270.588C373.993 270.756 374.124 270.892 374.286 270.892Z" fill="#3F3D56"/>
<path d="M369.261 270.892H371.188C371.35 270.892 371.481 270.756 371.481 270.588V269.629C371.481 269.461 371.35 269.325 371.188 269.325H369.261C369.099 269.325 368.968 269.461 368.968 269.629V270.588C368.968 270.756 369.099 270.892 369.261 270.892Z" fill="#3F3D56"/>
<path d="M364.236 270.892H366.163C366.324 270.892 366.456 270.756 366.456 270.588V269.629C366.456 269.461 366.324 269.325 366.163 269.325H364.236C364.074 269.325 363.943 269.461 363.943 269.629V270.588C363.943 270.756 364.074 270.892 364.236 270.892Z" fill="#3F3D56"/>
<path d="M359.211 270.892H361.138C361.299 270.892 361.43 270.756 361.43 270.588V269.629C361.43 269.461 361.299 269.325 361.138 269.325H359.211C359.049 269.325 358.918 269.461 358.918 269.629V270.588C358.918 270.756 359.049 270.892 359.211 270.892Z" fill="#3F3D56"/>
<path d="M354.185 270.892H356.112C356.274 270.892 356.405 270.756 356.405 270.588V269.629C356.405 269.461 356.274 269.325 356.112 269.325H354.185C354.024 269.325 353.893 269.461 353.893 269.629V270.588C353.893 270.756 354.024 270.892 354.185 270.892Z" fill="#3F3D56"/>
<path d="M349.16 270.892H351.087C351.249 270.892 351.38 270.756 351.38 270.588V269.629C351.38 269.461 351.249 269.325 351.087 269.325H349.16C348.998 269.325 348.867 269.461 348.867 269.629V270.588C348.867 270.756 348.998 270.892 349.16 270.892Z" fill="#3F3D56"/>
<path d="M344.135 270.892H346.062C346.224 270.892 346.355 270.756 346.355 270.588V269.629C346.355 269.461 346.224 269.325 346.062 269.325H344.135C343.973 269.325 343.842 269.461 343.842 269.629V270.588C343.842 270.756 343.973 270.892 344.135 270.892Z" fill="#3F3D56"/>
<path d="M339.11 270.892H341.037C341.198 270.892 341.33 270.756 341.33 270.588V269.629C341.33 269.461 341.198 269.325 341.037 269.325H339.11C338.948 269.325 338.817 269.461 338.817 269.629V270.588C338.817 270.756 338.948 270.892 339.11 270.892Z" fill="#3F3D56"/>
<path d="M334.085 270.892H336.011C336.173 270.892 336.304 270.756 336.304 270.588V269.629C336.304 269.461 336.173 269.325 336.011 269.325H334.085C333.923 269.325 333.792 269.461 333.792 269.629V270.588C333.792 270.756 333.923 270.892 334.085 270.892Z" fill="#3F3D56"/>
<path d="M329.059 270.892H330.986C331.148 270.892 331.279 270.756 331.279 270.588V269.629C331.279 269.461 331.148 269.325 330.986 269.325H329.059C328.898 269.325 328.766 269.461 328.766 269.629V270.588C328.766 270.756 328.898 270.892 329.059 270.892Z" fill="#3F3D56"/>
<path d="M324.034 270.892H325.961C326.123 270.892 326.254 270.756 326.254 270.588V269.629C326.254 269.461 326.123 269.325 325.961 269.325H324.034C323.872 269.325 323.741 269.461 323.741 269.629V270.588C323.741 270.756 323.872 270.892 324.034 270.892Z" fill="#3F3D56"/>
<path d="M319.009 270.892H320.936C321.098 270.892 321.229 270.756 321.229 270.588V269.629C321.229 269.461 321.098 269.325 320.936 269.325H319.009C318.847 269.325 318.716 269.461 318.716 269.629V270.588C318.716 270.756 318.847 270.892 319.009 270.892Z" fill="#3F3D56"/>
<path d="M313.984 270.892H315.911C316.072 270.892 316.203 270.756 316.203 270.588V269.629C316.203 269.461 316.072 269.325 315.911 269.325H313.984C313.822 269.325 313.691 269.461 313.691 269.629V270.588C313.691 270.756 313.822 270.892 313.984 270.892Z" fill="#3F3D56"/>
<path d="M308.959 270.892H310.885C311.047 270.892 311.178 270.756 311.178 270.588V269.629C311.178 269.461 311.047 269.325 310.885 269.325H308.959C308.797 269.325 308.666 269.461 308.666 269.629V270.588C308.666 270.756 308.797 270.892 308.959 270.892Z" fill="#3F3D56"/>
<path d="M303.933 270.892H305.86C306.022 270.892 306.153 270.756 306.153 270.588V269.629C306.153 269.461 306.022 269.325 305.86 269.325H303.933C303.772 269.325 303.64 269.461 303.64 269.629V270.588C303.64 270.756 303.772 270.892 303.933 270.892Z" fill="#3F3D56"/>
<path d="M298.908 270.892H300.835C300.997 270.892 301.128 270.756 301.128 270.588V269.629C301.128 269.461 300.997 269.325 300.835 269.325H298.908C298.746 269.325 298.615 269.461 298.615 269.629V270.588C298.615 270.756 298.746 270.892 298.908 270.892Z" fill="#3F3D56"/>
<path d="M374.346 273.505H376.272C376.434 273.505 376.565 273.369 376.565 273.201V272.242C376.565 272.074 376.434 271.938 376.272 271.938H374.346C374.184 271.938 374.053 272.074 374.053 272.242V273.201C374.053 273.369 374.184 273.505 374.346 273.505Z" fill="#3F3D56"/>
<path d="M369.32 273.505H371.247C371.409 273.505 371.54 273.369 371.54 273.201V272.242C371.54 272.074 371.409 271.938 371.247 271.938H369.32C369.159 271.938 369.028 272.074 369.028 272.242V273.201C369.028 273.369 369.159 273.505 369.32 273.505Z" fill="#3F3D56"/>
<path d="M364.295 273.505H366.222C366.384 273.505 366.515 273.369 366.515 273.201V272.242C366.515 272.074 366.384 271.938 366.222 271.938H364.295C364.133 271.938 364.002 272.074 364.002 272.242V273.201C364.002 273.369 364.133 273.505 364.295 273.505Z" fill="#3F3D56"/>
<path d="M359.27 273.505H361.197C361.359 273.505 361.49 273.369 361.49 273.201V272.242C361.49 272.074 361.359 271.938 361.197 271.938H359.27C359.108 271.938 358.977 272.074 358.977 272.242V273.201C358.977 273.369 359.108 273.505 359.27 273.505Z" fill="#3F3D56"/>
<path d="M354.245 273.505H356.172C356.333 273.505 356.464 273.369 356.464 273.201V272.242C356.464 272.074 356.333 271.938 356.172 271.938H354.245C354.083 271.938 353.952 272.074 353.952 272.242V273.201C353.952 273.369 354.083 273.505 354.245 273.505Z" fill="#3F3D56"/>
<path d="M349.22 273.505H351.146C351.308 273.505 351.439 273.369 351.439 273.201V272.242C351.439 272.074 351.308 271.938 351.146 271.938H349.22C349.058 271.938 348.927 272.074 348.927 272.242V273.201C348.927 273.369 349.058 273.505 349.22 273.505Z" fill="#3F3D56"/>
<path d="M344.194 273.505H346.121C346.283 273.505 346.414 273.369 346.414 273.201V272.242C346.414 272.074 346.283 271.938 346.121 271.938H344.194C344.033 271.938 343.901 272.074 343.901 272.242V273.201C343.901 273.369 344.033 273.505 344.194 273.505Z" fill="#3F3D56"/>
<path d="M339.169 273.505H341.096C341.258 273.505 341.389 273.369 341.389 273.201V272.242C341.389 272.074 341.258 271.938 341.096 271.938H339.169C339.007 271.938 338.876 272.074 338.876 272.242V273.201C338.876 273.369 339.007 273.505 339.169 273.505Z" fill="#3F3D56"/>
<path d="M334.144 273.505H336.071C336.233 273.505 336.364 273.369 336.364 273.201V272.242C336.364 272.074 336.233 271.938 336.071 271.938H334.144C333.982 271.938 333.851 272.074 333.851 272.242V273.201C333.851 273.369 333.982 273.505 334.144 273.505Z" fill="#3F3D56"/>
<path d="M329.119 273.505H331.046C331.207 273.505 331.339 273.369 331.339 273.201V272.242C331.339 272.074 331.207 271.938 331.046 271.938H329.119C328.957 271.938 328.826 272.074 328.826 272.242V273.201C328.826 273.369 328.957 273.505 329.119 273.505Z" fill="#3F3D56"/>
<path d="M324.094 273.505H326.02C326.182 273.505 326.313 273.369 326.313 273.201V272.242C326.313 272.074 326.182 271.938 326.02 271.938H324.094C323.932 271.938 323.801 272.074 323.801 272.242V273.201C323.801 273.369 323.932 273.505 324.094 273.505Z" fill="#3F3D56"/>
<path d="M319.068 273.505H320.995C321.157 273.505 321.288 273.369 321.288 273.201V272.242C321.288 272.074 321.157 271.938 320.995 271.938H319.068C318.907 271.938 318.775 272.074 318.775 272.242V273.201C318.775 273.369 318.907 273.505 319.068 273.505Z" fill="#3F3D56"/>
<path d="M314.043 273.505H315.97C316.132 273.505 316.263 273.369 316.263 273.201V272.242C316.263 272.074 316.132 271.938 315.97 271.938H314.043C313.881 271.938 313.75 272.074 313.75 272.242V273.201C313.75 273.369 313.881 273.505 314.043 273.505Z" fill="#3F3D56"/>
<path d="M309.018 273.505H310.945C311.107 273.505 311.238 273.369 311.238 273.201V272.242C311.238 272.074 311.107 271.938 310.945 271.938H309.018C308.856 271.938 308.725 272.074 308.725 272.242V273.201C308.725 273.369 308.856 273.505 309.018 273.505Z" fill="#3F3D56"/>
<path d="M303.993 273.505H305.92C306.081 273.505 306.212 273.369 306.212 273.201V272.242C306.212 272.074 306.081 271.938 305.92 271.938H303.993C303.831 271.938 303.7 272.074 303.7 272.242V273.201C303.7 273.369 303.831 273.505 303.993 273.505Z" fill="#3F3D56"/>
<path d="M298.967 273.505H300.894C301.056 273.505 301.187 273.369 301.187 273.201V272.242C301.187 272.074 301.056 271.938 300.894 271.938H298.967C298.806 271.938 298.675 272.074 298.675 272.242V273.201C298.675 273.369 298.806 273.505 298.967 273.505Z" fill="#3F3D56"/>
<path d="M332.636 276.641H352.152C352.313 276.641 352.444 276.504 352.444 276.336V275.378C352.444 275.209 352.313 275.073 352.152 275.073H332.636C332.475 275.073 332.344 275.209 332.344 275.378V276.336C332.344 276.504 332.475 276.641 332.636 276.641Z" fill="#3F3D56"/>
<path d="M311.961 223.796H310.255C309.738 223.796 309.318 224.232 309.318 224.77C309.318 225.308 309.738 225.744 310.255 225.744H311.961C312.478 225.744 312.897 225.308 312.897 224.77C312.897 224.232 312.478 223.796 311.961 223.796Z" fill="white"/>
<path d="M331.471 223.796H329.765C329.248 223.796 328.828 224.232 328.828 224.77C328.828 225.308 329.248 225.744 329.765 225.744H331.471C331.988 225.744 332.407 225.308 332.407 224.77C332.407 224.232 331.988 223.796 331.471 223.796Z" fill="white"/>
<path d="M336.999 223.796H335.293C334.775 223.796 334.356 224.232 334.356 224.77C334.356 225.308 334.775 225.744 335.293 225.744H336.999C337.516 225.744 337.935 225.308 337.935 224.77C337.935 224.232 337.516 223.796 336.999 223.796Z" fill="white"/>
<path d="M326.164 223.634H315.562C315.044 223.634 314.625 224.07 314.625 224.608C314.625 225.146 315.044 225.582 315.562 225.582H326.164C326.681 225.582 327.1 225.146 327.1 224.608C327.1 224.07 326.681 223.634 326.164 223.634Z" fill="white"/>
<path d="M352.177 223.634H341.575C341.058 223.634 340.638 224.07 340.638 224.608C340.638 225.146 341.058 225.582 341.575 225.582H352.177C352.694 225.582 353.114 225.146 353.114 224.608C353.114 224.07 352.694 223.634 352.177 223.634Z" fill="white"/>
<path d="M317.163 228.192H315.458C314.94 228.192 314.521 228.628 314.521 229.166C314.521 229.704 314.94 230.14 315.458 230.14H317.163C317.681 230.14 318.1 229.704 318.1 229.166C318.1 228.628 317.681 228.192 317.163 228.192Z" fill="white"/>
<path d="M336.673 228.192H334.967C334.45 228.192 334.031 228.628 334.031 229.166C334.031 229.704 334.45 230.14 334.967 230.14H336.673C337.191 230.14 337.61 229.704 337.61 229.166C337.61 228.628 337.191 228.192 336.673 228.192Z" fill="white"/>
<path d="M342.201 228.192H340.495C339.978 228.192 339.559 228.628 339.559 229.166C339.559 229.704 339.978 230.14 340.495 230.14H342.201C342.718 230.14 343.138 229.704 343.138 229.166C343.138 228.628 342.718 228.192 342.201 228.192Z" fill="white"/>
<path d="M331.367 228.03H320.764C320.247 228.03 319.828 228.466 319.828 229.004C319.828 229.542 320.247 229.978 320.764 229.978H331.367C331.884 229.978 332.303 229.542 332.303 229.004C332.303 228.466 331.884 228.03 331.367 228.03Z" fill="white"/>
<path d="M357.38 228.03H346.778C346.26 228.03 345.841 228.466 345.841 229.004C345.841 229.542 346.26 229.978 346.778 229.978H357.38C357.897 229.978 358.316 229.542 358.316 229.004C358.316 228.466 357.897 228.03 357.38 228.03Z" fill="white"/>
<path d="M322.366 232.588H320.66C320.143 232.588 319.724 233.024 319.724 233.562C319.724 234.1 320.143 234.536 320.66 234.536H322.366C322.883 234.536 323.303 234.1 323.303 233.562C323.303 233.024 322.883 232.588 322.366 232.588Z" fill="white"/>
<path d="M341.876 232.588H340.17C339.653 232.588 339.234 233.024 339.234 233.562C339.234 234.1 339.653 234.536 340.17 234.536H341.876C342.393 234.536 342.812 234.1 342.812 233.562C342.812 233.024 342.393 232.588 341.876 232.588Z" fill="white"/>
<path d="M347.404 232.588H345.698C345.181 232.588 344.762 233.024 344.762 233.562C344.762 234.1 345.181 234.536 345.698 234.536H347.404C347.921 234.536 348.34 234.1 348.34 233.562C348.34 233.024 347.921 232.588 347.404 232.588Z" fill="white"/>
<path d="M336.569 232.426H325.967C325.45 232.426 325.03 232.862 325.03 233.4C325.03 233.938 325.45 234.374 325.967 234.374H336.569C337.086 234.374 337.506 233.938 337.506 233.4C337.506 232.862 337.086 232.426 336.569 232.426Z" fill="white"/>
<path d="M362.583 232.426H351.98C351.463 232.426 351.044 232.862 351.044 233.4C351.044 233.938 351.463 234.374 351.98 234.374H362.583C363.1 234.374 363.519 233.938 363.519 233.4C363.519 232.862 363.1 232.426 362.583 232.426Z" fill="white"/>
<path d="M327.569 236.984H325.863C325.346 236.984 324.926 237.42 324.926 237.958C324.926 238.496 325.346 238.932 325.863 238.932H327.569C328.086 238.932 328.505 238.496 328.505 237.958C328.505 237.42 328.086 236.984 327.569 236.984Z" fill="white"/>
<path d="M347.079 236.984H345.373C344.856 236.984 344.436 237.42 344.436 237.958C344.436 238.496 344.856 238.932 345.373 238.932H347.079C347.596 238.932 348.015 238.496 348.015 237.958C348.015 237.42 347.596 236.984 347.079 236.984Z" fill="white"/>
<path d="M352.607 236.984H350.901C350.384 236.984 349.964 237.42 349.964 237.958C349.964 238.496 350.384 238.932 350.901 238.932H352.607C353.124 238.932 353.543 238.496 353.543 237.958C353.543 237.42 353.124 236.984 352.607 236.984Z" fill="white"/>
<path d="M341.772 236.822H331.17C330.652 236.822 330.233 237.258 330.233 237.796C330.233 238.334 330.652 238.77 331.17 238.77H341.772C342.289 238.77 342.708 238.334 342.708 237.796C342.708 237.258 342.289 236.822 341.772 236.822Z" fill="white"/>
<path d="M331.471 254.465H329.765C329.248 254.465 328.828 254.901 328.828 255.439C328.828 255.976 329.248 256.412 329.765 256.412H331.471C331.988 256.412 332.407 255.976 332.407 255.439C332.407 254.901 331.988 254.465 331.471 254.465Z" fill="white"/>
<path d="M336.999 254.465H335.293C334.775 254.465 334.356 254.901 334.356 255.439C334.356 255.976 334.775 256.412 335.293 256.412H336.999C337.516 256.412 337.935 255.976 337.935 255.439C337.935 254.901 337.516 254.465 336.999 254.465Z" fill="white"/>
<path d="M352.177 254.627H341.575C341.058 254.627 340.638 255.063 340.638 255.601C340.638 256.139 341.058 256.575 341.575 256.575H352.177C352.694 256.575 353.114 256.139 353.114 255.601C353.114 255.063 352.694 254.627 352.177 254.627Z" fill="white"/>
<path d="M311.961 254.465H310.255C309.738 254.465 309.318 254.901 309.318 255.439C309.318 255.976 309.738 256.412 310.255 256.412H311.961C312.478 256.412 312.897 255.976 312.897 255.439C312.897 254.901 312.478 254.465 311.961 254.465Z" fill="white"/>
<path d="M326.164 254.627H315.562C315.044 254.627 314.625 255.063 314.625 255.601C314.625 256.139 315.044 256.575 315.562 256.575H326.164C326.681 256.575 327.1 256.139 327.1 255.601C327.1 255.063 326.681 254.627 326.164 254.627Z" fill="white"/>
<path d="M317.163 250.069H315.458C314.94 250.069 314.521 250.505 314.521 251.043C314.521 251.58 314.94 252.016 315.458 252.016H317.163C317.681 252.016 318.1 251.58 318.1 251.043C318.1 250.505 317.681 250.069 317.163 250.069Z" fill="white"/>
<path d="M336.673 250.069H334.967C334.45 250.069 334.031 250.505 334.031 251.043C334.031 251.58 334.45 252.016 334.967 252.016H336.673C337.191 252.016 337.61 251.58 337.61 251.043C337.61 250.505 337.191 250.069 336.673 250.069Z" fill="white"/>
<path d="M342.201 250.069H340.495C339.978 250.069 339.559 250.505 339.559 251.043C339.559 251.58 339.978 252.016 340.495 252.016H342.201C342.718 252.016 343.138 251.58 343.138 251.043C343.138 250.505 342.718 250.069 342.201 250.069Z" fill="white"/>
<path d="M331.367 250.231H320.764C320.247 250.231 319.828 250.667 319.828 251.205C319.828 251.743 320.247 252.179 320.764 252.179H331.367C331.884 252.179 332.303 251.743 332.303 251.205C332.303 250.667 331.884 250.231 331.367 250.231Z" fill="white"/>
<path d="M322.366 245.673H320.66C320.143 245.673 319.724 246.109 319.724 246.647C319.724 247.184 320.143 247.62 320.66 247.62H322.366C322.883 247.62 323.303 247.184 323.303 246.647C323.303 246.109 322.883 245.673 322.366 245.673Z" fill="white"/>
<path d="M341.876 245.673H340.17C339.653 245.673 339.234 246.109 339.234 246.647C339.234 247.184 339.653 247.62 340.17 247.62H341.876C342.393 247.62 342.812 247.184 342.812 246.647C342.812 246.109 342.393 245.673 341.876 245.673Z" fill="white"/>
<path d="M347.404 245.673H345.698C345.181 245.673 344.762 246.109 344.762 246.647C344.762 247.184 345.181 247.62 345.698 247.62H347.404C347.921 247.62 348.34 247.184 348.34 246.647C348.34 246.109 347.921 245.673 347.404 245.673Z" fill="white"/>
<path d="M336.569 245.835H325.967C325.45 245.835 325.03 246.271 325.03 246.809C325.03 247.347 325.45 247.783 325.967 247.783H336.569C337.086 247.783 337.506 247.347 337.506 246.809C337.506 246.271 337.086 245.835 336.569 245.835Z" fill="white"/>
<path d="M327.569 241.277H325.863C325.346 241.277 324.926 241.713 324.926 242.251C324.926 242.788 325.346 243.224 325.863 243.224H327.569C328.086 243.224 328.505 242.788 328.505 242.251C328.505 241.713 328.086 241.277 327.569 241.277Z" fill="white"/>
<path d="M347.079 241.277H345.373C344.856 241.277 344.436 241.713 344.436 242.251C344.436 242.788 344.856 243.224 345.373 243.224H347.079C347.596 243.224 348.015 242.788 348.015 242.251C348.015 241.713 347.596 241.277 347.079 241.277Z" fill="white"/>
<path d="M352.607 241.277H350.901C350.384 241.277 349.964 241.713 349.964 242.251C349.964 242.788 350.384 243.224 350.901 243.224H352.607C353.124 243.224 353.543 242.788 353.543 242.251C353.543 241.713 353.124 241.277 352.607 241.277Z" fill="white"/>
<path d="M341.772 241.439H331.17C330.652 241.439 330.233 241.875 330.233 242.413C330.233 242.951 330.652 243.387 331.17 243.387H341.772C342.289 243.387 342.708 242.951 342.708 242.413C342.708 241.875 342.289 241.439 341.772 241.439Z" fill="white"/>
<path d="M302.891 305.984L294.883 292.82L320.019 271.982L330.395 260.029C331.743 258.476 333.459 257.318 335.372 256.671C337.285 256.023 339.328 255.91 341.296 256.341C343.265 256.772 345.09 257.733 346.59 259.128C348.089 260.522 349.211 262.302 349.842 264.288C350.777 267.232 350.576 270.438 349.281 273.231C347.986 276.023 345.698 278.183 342.901 279.255L326.495 285.54L302.891 305.984Z" fill="#FFB6B6"/>
<path d="M114.992 210.536V274.517H158.093V210.536C158.094 210.075 157.953 209.627 157.69 209.257C157.428 208.886 157.058 208.613 156.635 208.477C156.436 208.409 156.227 208.375 156.018 208.377H117.073C116.8 208.377 116.53 208.432 116.277 208.54C116.025 208.648 115.796 208.807 115.602 209.008C115.409 209.208 115.255 209.446 115.151 209.708C115.046 209.971 114.992 210.252 114.992 210.536ZM131.812 232.52C131.824 231.259 132.313 230.053 133.175 229.165C134.037 228.277 135.2 227.779 136.413 227.779C137.626 227.779 138.79 228.277 139.652 229.165C140.514 230.053 141.003 231.259 141.014 232.52V239.944C141.008 241.208 140.521 242.419 139.659 243.311C138.796 244.203 137.63 244.704 136.413 244.704C135.197 244.704 134.03 244.203 133.168 243.311C132.306 242.419 131.819 241.208 131.812 239.944V232.52Z" fill="#2F2E41"/>
<path d="M114.86 272.471V278.641C114.861 278.96 114.983 279.267 115.199 279.493C115.416 279.72 115.71 279.848 116.017 279.851H157.067C157.375 279.849 157.67 279.721 157.886 279.494C158.103 279.268 158.225 278.961 158.225 278.641V272.471H114.86Z" fill="#3F3D56"/>
<path d="M47.1868 114.139V230.96C47.1879 232.449 47.7571 233.876 48.7694 234.929C49.7816 235.982 51.1542 236.574 52.5857 236.575H219.053C220.485 236.574 221.857 235.982 222.87 234.929C223.882 233.876 224.451 232.449 224.452 230.96V114.139C224.449 112.652 223.879 111.226 222.867 110.175C221.855 109.124 220.484 108.533 219.053 108.531H52.5857C51.1554 108.533 49.7842 109.124 48.7722 110.175C47.7603 111.226 47.1902 112.652 47.1868 114.139Z" fill="#3F3D56"/>
<path d="M51.092 115.593V229.519C51.0934 230.315 51.3978 231.077 51.9386 231.64C52.4794 232.202 53.2126 232.519 53.9775 232.52H217.668C218.432 232.519 219.166 232.202 219.706 231.64C220.247 231.077 220.552 230.315 220.553 229.519V115.593C220.553 114.796 220.249 114.032 219.708 113.469C219.167 112.905 218.433 112.587 217.668 112.586H53.9775C53.2117 112.587 52.4778 112.905 51.9369 113.469C51.3959 114.032 51.0921 114.796 51.092 115.593Z" fill="white"/>
<path d="M81.4701 279.433C81.6367 279.65 81.8485 279.825 82.0895 279.945C82.3306 280.065 82.5946 280.127 82.8618 280.126H180.247C180.513 280.125 180.776 280.063 181.016 279.944C181.257 279.825 181.469 279.651 181.636 279.436C181.804 279.221 181.924 278.97 181.986 278.7C182.049 278.431 182.053 278.151 181.999 277.88L180.487 270.412C180.424 270.108 180.289 269.824 180.094 269.588C179.899 269.351 179.651 269.169 179.371 269.059C179.168 268.976 178.953 268.934 178.735 268.934H84.3676C84.15 268.934 83.9343 268.976 83.7317 269.059C83.4519 269.169 83.2032 269.351 83.0083 269.588C82.8134 269.824 82.6785 270.108 82.6159 270.412L81.1042 277.88C81.0504 278.151 81.0553 278.431 81.1186 278.699C81.1819 278.968 81.302 279.219 81.4701 279.433Z" fill="#2F2E41"/>
<path d="M212.355 128.28H59.1911C59.0319 128.276 58.8804 128.208 58.7691 128.089C58.6578 127.971 58.5954 127.812 58.5954 127.646C58.5954 127.481 58.6578 127.322 58.7691 127.203C58.8804 127.085 59.0319 127.016 59.1911 127.013H212.355C212.515 127.016 212.666 127.085 212.777 127.203C212.889 127.322 212.951 127.481 212.951 127.646C212.951 127.812 212.889 127.971 212.777 128.089C212.666 128.208 212.515 128.276 212.355 128.28Z" fill="#3F3D56"/>
<path d="M69.6172 123.779C71.5886 123.779 73.1868 122.08 73.1868 119.984C73.1868 117.888 71.5886 116.189 69.6172 116.189C67.6458 116.189 66.0477 117.888 66.0477 119.984C66.0477 122.08 67.6458 123.779 69.6172 123.779Z" fill="#3F3D56"/>
<path d="M81.9484 123.779C83.9198 123.779 85.518 122.08 85.518 119.984C85.518 117.888 83.9198 116.189 81.9484 116.189C79.977 116.189 78.3789 117.888 78.3789 119.984C78.3789 122.08 79.977 123.779 81.9484 123.779Z" fill="#3F3D56"/>
<path d="M94.2796 123.779C96.2511 123.779 97.8492 122.08 97.8492 119.984C97.8492 117.888 96.2511 116.189 94.2796 116.189C92.3082 116.189 90.7101 117.888 90.7101 119.984C90.7101 122.08 92.3082 123.779 94.2796 123.779Z" fill="#3F3D56"/>
<path d="M204.93 117.127H196.172C195.998 117.132 195.834 117.206 195.713 117.335C195.592 117.464 195.524 117.637 195.524 117.817C195.524 117.997 195.592 118.17 195.713 118.299C195.834 118.427 195.998 118.502 196.172 118.506H204.93C205.104 118.504 205.27 118.43 205.393 118.301C205.515 118.172 205.583 117.998 205.583 117.817C205.583 117.636 205.515 117.462 205.393 117.333C205.27 117.204 205.104 117.13 204.93 117.127Z" fill="#3F3D56"/>
<path d="M204.93 119.716H196.172C195.998 119.72 195.833 119.795 195.712 119.924C195.591 120.052 195.523 120.225 195.523 120.406C195.523 120.586 195.591 120.759 195.712 120.888C195.833 121.017 195.998 121.091 196.172 121.095H204.93C205.104 121.093 205.271 121.019 205.393 120.89C205.516 120.761 205.585 120.587 205.585 120.406C205.585 120.224 205.516 120.05 205.393 119.921C205.271 119.792 205.104 119.719 204.93 119.716Z" fill="#3F3D56"/>
<path d="M204.93 122.305H196.172C195.998 122.309 195.834 122.384 195.713 122.513C195.592 122.642 195.524 122.815 195.524 122.995C195.524 123.175 195.592 123.348 195.713 123.476C195.834 123.605 195.998 123.68 196.172 123.684H204.93C205.104 123.681 205.27 123.608 205.393 123.479C205.515 123.35 205.583 123.176 205.583 122.995C205.583 122.813 205.515 122.64 205.393 122.511C205.27 122.382 205.104 122.308 204.93 122.305Z" fill="#3F3D56"/>
<path d="M416.076 275.179C416.341 275.979 416.842 276.672 417.508 277.157C418.175 277.642 418.972 277.896 419.785 277.881L435.677 277.455C436.497 277.439 437.289 277.147 437.936 276.623C438.583 276.099 439.049 275.372 439.265 274.55L441.514 249.542C442.312 249.918 443.181 250.103 444.056 250.085C444.817 250.065 445.567 249.89 446.263 249.569C446.958 249.247 447.586 248.787 448.111 248.213C448.635 247.64 449.046 246.964 449.319 246.226C449.593 245.487 449.724 244.7 449.705 243.909C449.686 243.117 449.517 242.338 449.208 241.614C448.899 240.891 448.457 240.238 447.905 239.692C447.354 239.147 446.704 238.72 445.994 238.435C445.284 238.151 444.526 238.015 443.766 238.035C443.416 238.033 443.066 238.071 442.724 238.147C442.352 237.728 441.899 237.395 441.396 237.169C440.892 236.943 440.349 236.83 439.8 236.835L415.355 237.492C415.152 237.499 414.95 237.526 414.752 237.57C414.216 237.673 413.707 237.896 413.261 238.221C412.814 238.546 412.44 238.968 412.163 239.456C411.886 239.945 411.712 240.489 411.655 241.053C411.597 241.617 411.656 242.187 411.828 242.725L416.076 275.179ZM441.975 247.844L443.576 241.884C443.758 241.196 443.762 240.47 443.588 239.779C443.665 239.779 443.734 239.741 443.812 239.741C444.909 239.717 445.97 240.147 446.763 240.936C447.556 241.725 448.016 242.809 448.042 243.95C448.067 245.091 447.657 246.196 446.9 247.023C446.144 247.849 445.103 248.33 444.006 248.36C443.296 248.383 442.594 248.205 441.975 247.844Z" fill="#2F2E41"/>
<path d="M414.752 237.569C415.273 240.666 421.128 242.843 428.169 242.465C434.643 242.155 439.937 239.791 440.907 236.989C440.548 236.878 440.174 236.826 439.8 236.835L415.355 237.492C415.152 237.499 414.95 237.525 414.752 237.569Z" fill="#3F3D56"/>
<path d="M429.459 261.437C429.491 261.428 429.522 261.414 429.549 261.395L433.001 259.046C433.042 259.018 433.077 258.979 433.1 258.933C433.124 258.888 433.137 258.837 433.137 258.785C433.137 258.733 433.124 258.682 433.101 258.637C433.077 258.591 433.043 258.553 433.001 258.524L429.414 256.081C429.381 256.058 429.344 256.043 429.305 256.035C429.266 256.027 429.227 256.027 429.188 256.035C429.149 256.044 429.113 256.06 429.08 256.083C429.047 256.106 429.019 256.136 428.998 256.17C428.976 256.204 428.961 256.243 428.954 256.283C428.946 256.323 428.947 256.365 428.955 256.405C428.963 256.445 428.979 256.483 429.001 256.517C429.023 256.551 429.052 256.58 429.085 256.602L432.289 258.785L429.221 260.873C429.162 260.914 429.118 260.975 429.098 261.045C429.078 261.116 429.082 261.192 429.111 261.26C429.139 261.327 429.19 261.382 429.254 261.414C429.317 261.447 429.39 261.455 429.459 261.437Z" fill="#6C63FF"/>
<path d="M424.008 261.698C424.066 261.683 424.118 261.65 424.158 261.604C424.198 261.557 424.223 261.5 424.231 261.438C424.24 261.376 424.23 261.314 424.204 261.258C424.177 261.202 424.135 261.156 424.084 261.125L420.902 259.228L423.977 256.853C424.009 256.829 424.035 256.798 424.056 256.763C424.076 256.728 424.089 256.689 424.095 256.648C424.101 256.608 424.099 256.567 424.089 256.527C424.079 256.487 424.062 256.45 424.039 256.417C424.015 256.384 423.986 256.357 423.952 256.336C423.918 256.315 423.881 256.301 423.842 256.295C423.803 256.289 423.763 256.291 423.725 256.301C423.687 256.311 423.651 256.328 423.62 256.353L420.177 259.012C420.137 259.043 420.105 259.084 420.084 259.13C420.063 259.177 420.053 259.229 420.056 259.281C420.059 259.332 420.075 259.383 420.101 259.427C420.127 259.471 420.163 259.507 420.207 259.533L423.785 261.666C423.853 261.706 423.932 261.718 424.008 261.698Z" fill="#6C63FF"/>
<path d="M429.116 263.495C429.145 263.488 429.172 263.476 429.198 263.459C429.232 263.438 429.261 263.41 429.284 263.377C429.307 263.344 429.324 263.306 429.334 263.266C429.343 263.227 429.345 263.185 429.339 263.145C429.332 263.104 429.319 263.065 429.298 263.03L424.406 254.666C424.364 254.595 424.298 254.545 424.221 254.525C424.143 254.506 424.062 254.519 423.994 254.562C423.926 254.605 423.877 254.674 423.858 254.755C423.84 254.835 423.852 254.92 423.893 254.99L428.786 263.355C428.819 263.412 428.869 263.456 428.929 263.482C428.988 263.507 429.054 263.512 429.116 263.495Z" fill="#6C63FF"/>
<path d="M154.074 162.716H127.564C126.483 162.716 125.606 163.627 125.606 164.752V167.445C125.606 168.57 126.483 169.482 127.564 169.482H154.074C155.155 169.482 156.032 168.57 156.032 167.445V164.752C156.032 163.627 155.155 162.716 154.074 162.716Z" fill="#70979A"/>
<path d="M169.526 176.248H112.112C111.031 176.248 110.154 177.159 110.154 178.284V180.977C110.154 182.102 111.031 183.014 112.112 183.014H169.526C170.607 183.014 171.484 182.102 171.484 180.977V178.284C171.484 177.159 170.607 176.248 169.526 176.248Z" fill="#E6E6E6"/>
<path d="M169.526 189.78H112.112C111.031 189.78 110.154 190.691 110.154 191.816V194.509C110.154 195.634 111.031 196.546 112.112 196.546H169.526C170.607 196.546 171.484 195.634 171.484 194.509V191.816C171.484 190.691 170.607 189.78 169.526 189.78Z" fill="#E6E6E6"/>
<path d="M174.393 235.093L174.523 235.52L174.53 235.535L178.444 247.91L182.947 262.172L191.419 288.973L191.501 293.136V293.151L192.13 326.642L190.385 331.182L192.349 338.626C192.349 338.626 191.446 327.374 186.601 333.835C183.857 337.508 180.648 341.265 178.013 344.788C181.852 346.403 185.753 347.865 189.715 349.172C190.57 349.456 191.433 349.727 192.295 349.997C192.479 350.054 192.664 350.111 192.849 350.168C205.983 354.207 219.562 356.477 233.252 356.922C233.963 356.943 234.661 356.957 235.339 356.972C235.578 356.979 235.811 356.986 236.044 356.986C236.81 356.993 237.57 357 238.336 357C239.883 357 241.423 356.976 242.955 356.929C254.301 356.596 265.581 355.01 276.604 352.196C276.529 347.464 276.323 341.934 276.029 336.027C275.892 333.131 272.819 329.992 272.635 326.961C272.505 324.683 275.263 322.541 275.119 320.228C274.188 305.988 273.025 311.455 272.163 301.37C272.074 300.381 271.991 299.435 271.916 298.531C271.362 292.055 270.979 288.005 270.979 288.005L274.66 263.873L280.443 225.984L279.998 225.223L279.499 224.966L248.998 209.267L247.342 204.855C246.859 203.584 246.022 202.492 244.938 201.719C243.854 200.947 242.572 200.53 241.258 200.521L221.166 200.435C220.124 200.431 219.095 200.684 218.165 201.176C217.236 201.667 216.433 202.382 215.822 203.261L210.382 211.096L174.393 235.093Z" fill="#3F3D56"/>
<path d="M196.052 283.009L191.501 293.136L188.394 300.054L183.05 329.154L180.374 332.107L178.081 321.652L154.087 327.192C153.3 322.645 153.877 327.346 153.391 322.357C153.528 322.215 153.671 322.073 153.815 321.93C154.198 321.56 154.52 321.211 154.513 320.877C154.239 303.669 155.061 274.384 161.917 256.642C162.991 253.746 164.407 250.999 166.133 248.465C166.27 248.273 166.4 248.081 166.53 247.889C169.691 243.285 171.69 238.751 174.523 235.527V235.52C174.54 235.506 174.556 235.489 174.571 235.47C174.581 235.465 174.59 235.458 174.598 235.449L194.06 224.717L194.895 249.113L195.491 266.648L196.052 283.009Z" fill="#3F3D56"/>
<path d="M266.229 285.886L271.913 298.534L273.898 302.939L279.241 332.036L281.908 334.982L284.205 324.53L285.285 324.3L304.756 320.106L310.432 338.85C311.711 336.634 312.215 334.026 311.858 331.468C311.502 328.909 310.307 326.558 308.475 324.81C308.088 324.445 307.765 324.09 307.774 323.754C308.097 303.515 306.906 266.558 296.156 251.347C292.741 246.52 290.693 241.712 287.712 238.353C287.703 238.344 287.703 238.334 287.694 238.334L280.44 225.983L279.997 225.225L279.499 224.966L266.229 285.886Z" fill="#3F3D56"/>
<path d="M231.793 194.489C246.555 194.489 258.522 182.044 258.522 166.692C258.522 151.34 246.555 138.894 231.793 138.894C217.03 138.894 205.063 151.34 205.063 166.692C205.063 182.044 217.03 194.489 231.793 194.489Z" fill="#FFB6B6"/>
<path d="M267.921 147.275C267.714 147.045 267.464 146.861 267.187 146.733C266.91 146.606 266.611 146.537 266.307 146.533L266.709 145.373C266.841 145.007 266.876 144.612 266.812 144.227C266.748 143.843 266.587 143.483 266.345 143.185C266.103 142.887 265.79 142.66 265.436 142.53C265.083 142.399 264.702 142.368 264.334 142.44L262.87 142.734L263.008 141.717C263.061 141.338 263.018 140.952 262.884 140.595C262.75 140.239 262.528 139.925 262.242 139.685C261.956 139.444 261.614 139.285 261.251 139.224C260.888 139.162 260.516 139.2 260.171 139.334C259.857 139.462 259.52 139.516 259.183 139.491C258.847 139.466 258.52 139.363 258.227 139.19C257.933 139.022 257.677 138.79 257.478 138.508C257.279 138.227 257.142 137.904 257.075 137.562L256.565 135.004L256.511 134.867C254.028 130.562 249.253 127.431 243.41 126.283C238.209 125.254 232.876 125.778 227.735 126.27C225.695 126.47 223.392 126.695 221.472 127.917C219.841 128.965 218.461 131.062 218.743 133.176C213.674 131.561 208.239 134.786 205.545 138.853C202.354 143.694 201.832 149.758 201.748 154.499C201.52 165.716 203.746 174.893 208.347 181.78C208.683 182.279 208.767 183.321 209.433 183.67L209.295 183.44C210.038 183.826 210.794 184.45 210.512 185.118C209.702 187.039 215.083 191.287 218.875 192.691C225.791 195.255 234.988 195.037 241.454 194.114L241.682 192.523C244.016 192.192 245.659 191.562 246.121 190.576C246.937 189.853 247.633 189.204 248.239 188.605L248.245 188.599C248.257 188.586 248.281 188.568 248.293 188.555C251.214 185.642 251.892 183.982 252.198 181.456C252.492 178.979 251.97 176.465 251.436 174.2C262.678 176.01 247.009 161.748 257.483 158.991C257.603 158.953 257.725 158.921 257.849 158.897C258.155 158.823 258.461 158.748 258.755 158.66C260.172 158.26 261.529 157.658 262.786 156.87C265.714 155.017 266.679 152.559 268.191 149.789C268.409 149.395 268.501 148.938 268.452 148.486C268.404 148.034 268.218 147.61 267.921 147.275Z" fill="#2F2E41"/>
<path d="M326.332 287.865C326.326 288.957 326.314 290.485 326.266 292.375C326.26 292.637 326.254 292.906 326.248 293.18C326.17 296.655 326.092 299.568 325.966 302.806C325.96 303.031 325.954 303.249 325.942 303.473C325.774 307.99 325.51 313.249 325.054 321.577C324.208 336.961 322.732 323.692 321.251 329.089C321.179 329.357 321.101 329.675 321.029 330.049C320.804 331.407 320.426 332.733 319.901 333.998C319.115 334.485 318.305 334.953 317.507 335.421C315.234 336.737 312.924 338.003 310.597 339.207C309.289 339.881 307.975 340.542 306.656 341.179C306.446 341.278 306.242 341.378 306.038 341.472C299.28 344.723 292.314 347.487 285.192 349.744C283.8 350.181 282.414 350.605 281.011 350.998C279.547 351.422 278.083 351.821 276.601 352.196C265.579 355.01 254.3 356.597 242.954 356.931C241.424 356.981 239.883 356.999 238.335 356.999C237.567 356.999 236.811 356.993 236.043 356.987C235.809 356.987 235.575 356.981 235.342 356.974C234.664 356.956 233.962 356.943 233.254 356.924C219.564 356.48 205.986 354.21 192.852 350.168L192.294 350C191.43 349.725 190.572 349.457 189.714 349.17C185.755 347.866 181.854 346.407 178.011 344.791C175.077 343.562 172.178 342.243 169.312 340.836C169.286 340.828 169.262 340.815 169.24 340.798C168.641 340.511 168.035 340.212 167.435 339.906C167.357 339.862 167.273 339.819 167.189 339.775C164.951 338.64 162.738 337.45 160.548 336.207C158.706 331.808 156.115 330.966 154.507 327.098C154.039 325.949 153.701 324.748 153.499 323.518C153.499 323.505 153.493 323.493 153.493 323.474C153.661 325.795 152.78 319.357 153.487 323.449C153.481 323.374 153.475 323.293 153.469 323.199C153.451 322.975 153.428 322.7 153.392 322.357C151.334 301.465 151.466 277.571 150.572 257.883C150.512 256.61 150.45 255.392 150.386 254.227C150.368 253.84 150.344 253.46 150.32 253.086C150.362 252.973 150.41 252.855 150.464 252.742C150.476 252.71 150.49 252.679 150.506 252.649C150.524 252.61 150.544 252.573 150.566 252.537C150.578 252.518 150.596 252.493 150.608 252.474C150.617 252.453 150.627 252.432 150.638 252.412C150.692 252.324 150.752 252.231 150.818 252.144C150.848 252.106 150.872 252.075 150.902 252.044C150.923 252.012 150.947 251.983 150.974 251.956C150.992 251.926 151.015 251.899 151.04 251.875C151.064 251.85 151.088 251.819 151.118 251.788C151.131 251.768 151.147 251.751 151.166 251.738C151.213 251.681 151.266 251.629 151.322 251.582C151.536 251.377 151.765 251.19 152.006 251.021C152.09 250.964 152.18 250.908 152.264 250.846C152.868 250.47 153.505 250.152 154.165 249.898C154.393 249.81 154.621 249.729 154.867 249.642C154.957 249.617 155.041 249.586 155.131 249.555C155.263 249.511 155.395 249.467 155.533 249.436C156.217 249.224 156.955 249.043 157.753 248.875C157.849 248.856 157.951 248.837 158.053 248.812C158.197 248.781 158.347 248.756 158.496 248.731C158.7 248.694 158.91 248.656 159.12 248.619C160.902 248.326 162.924 248.107 165.155 247.964C165.365 247.951 165.575 247.939 165.785 247.926C166.031 247.914 166.277 247.901 166.529 247.889C166.739 247.876 166.955 247.87 167.171 247.864C167.381 247.852 167.597 247.845 167.819 247.839C168.425 247.82 169.048 247.802 169.684 247.789C171.496 247.752 173.404 247.764 175.407 247.808C176.337 247.833 177.285 247.858 178.257 247.901C178.323 247.901 178.383 247.908 178.443 247.908C179.288 247.939 180.14 247.976 181.016 248.026C181.628 248.057 182.246 248.089 182.864 248.126C183.446 248.163 184.034 248.201 184.627 248.245C185.089 248.27 185.551 248.307 186.019 248.338C186.415 248.369 186.811 248.401 187.207 248.425L187.747 248.463C188.041 248.488 188.335 248.507 188.635 248.538C189.294 248.594 189.954 248.65 190.626 248.706C191.292 248.769 191.97 248.831 192.648 248.893C193.326 248.956 194.01 249.024 194.693 249.093C194.765 249.099 194.831 249.105 194.897 249.112C195.521 249.18 196.145 249.243 196.775 249.311C196.919 249.324 197.069 249.336 197.213 249.355C197.813 249.418 198.426 249.491 199.032 249.558C199.218 249.579 199.403 249.599 199.589 249.62C200.064 249.674 200.532 249.721 201.01 249.779C201.64 249.854 202.282 249.923 202.906 250.01C203.392 250.066 203.878 250.122 204.363 250.185C205.125 250.278 205.899 250.378 206.673 250.484C206.967 250.522 207.261 250.559 207.555 250.603C209.762 250.89 211.994 251.208 214.262 251.538C217.699 252.044 221.19 252.593 224.705 253.185C228.227 253.778 231.768 254.404 235.329 255.063C236.229 255.232 237.129 255.4 238.035 255.575C238.443 255.656 238.851 255.737 239.259 255.818C239.955 255.949 240.65 256.086 241.346 256.223C242.042 256.361 242.738 256.498 243.434 256.641C244.262 256.81 245.096 256.978 245.923 257.147C251.376 258.27 256.799 259.467 262.09 260.721C262.96 260.927 263.83 261.139 264.694 261.345C266.421 261.763 268.133 262.187 269.829 262.618C270.297 262.73 270.759 262.849 271.22 262.967C272.372 263.267 273.524 263.566 274.658 263.872L274.856 263.928C275.69 264.14 276.505 264.358 277.321 264.583C279.247 265.107 281.141 265.637 283.002 266.174C284.238 266.529 285.46 266.889 286.667 267.253C288.473 267.796 290.243 268.345 291.964 268.9C292.39 269.037 292.816 269.174 293.236 269.305C294.496 269.711 295.738 270.123 296.943 270.534C297.903 270.859 298.839 271.19 299.763 271.52C300.687 271.851 301.593 272.181 302.48 272.512C303.05 272.724 303.614 272.949 304.178 273.161C304.988 273.473 305.786 273.785 306.566 274.097C306.806 274.19 307.039 274.29 307.273 274.384C307.423 274.452 307.567 274.508 307.711 274.571C307.993 274.689 308.281 274.802 308.557 274.92C308.839 275.032 309.115 275.151 309.391 275.276C309.661 275.388 309.937 275.507 310.201 275.625C310.471 275.737 310.735 275.856 310.999 275.981C311.221 276.074 311.437 276.174 311.647 276.274C312.072 276.467 312.498 276.661 312.912 276.86C313.116 276.96 313.32 277.054 313.524 277.153L313.992 277.378C314.058 277.415 314.124 277.447 314.19 277.478C314.34 277.553 314.496 277.634 314.646 277.709C314.994 277.877 315.336 278.058 315.672 278.226C316.122 278.464 316.56 278.701 316.98 278.931C317.405 279.168 317.819 279.406 318.215 279.636C318.281 279.674 318.341 279.711 318.407 279.749C318.497 279.799 318.587 279.855 318.677 279.905C318.983 280.086 319.277 280.273 319.571 280.454C320.147 280.822 320.693 281.183 321.203 281.545C321.317 281.626 321.425 281.707 321.539 281.782C321.917 282.063 322.277 282.338 322.612 282.618C322.612 282.625 322.612 282.625 322.618 282.625C322.732 282.712 322.84 282.805 322.948 282.893C323.038 282.98 323.134 283.055 323.224 283.142C323.536 283.423 323.824 283.691 324.088 283.966C324.177 284.051 324.261 284.14 324.34 284.234C324.375 284.264 324.407 284.298 324.436 284.334C324.556 284.459 324.664 284.583 324.766 284.708C324.782 284.725 324.796 284.744 324.808 284.764C324.952 284.939 325.084 285.114 325.21 285.288C325.27 285.376 325.336 285.463 325.39 285.55C325.462 285.656 325.534 285.769 325.594 285.875C325.648 285.962 325.696 286.056 325.744 286.143C325.871 286.368 325.98 286.604 326.068 286.848C326.135 287.014 326.189 287.185 326.23 287.36C326.275 287.525 326.309 287.694 326.332 287.865Z" fill="#2F2E41"/>
<path opacity="0.2" d="M326.332 287.865C326.326 288.957 326.314 290.485 326.266 292.375C326.26 292.637 326.248 292.906 326.242 293.18C326.182 295.831 326.092 299.107 325.966 302.806C325.96 303.031 325.954 303.249 325.942 303.474C325.774 307.99 325.51 313.249 325.054 321.577C324.208 336.962 322.732 323.692 321.251 329.089C317.136 326.456 312.624 323.699 307.801 320.866C306.932 320.355 306.054 319.841 305.168 319.325C295.522 313.73 284.748 307.865 273.5 302.057C273.056 301.827 272.606 301.596 272.162 301.371C246.397 288.127 218.275 275.245 195.491 266.648C191.094 264.989 186.895 263.491 182.948 262.175C174.633 259.411 167.447 257.477 161.916 256.641C156.157 255.768 152.18 256.08 150.572 257.883C150.512 256.61 150.45 255.392 150.386 254.227C150.362 253.84 150.338 253.46 150.314 253.086C150.351 252.983 150.399 252.885 150.446 252.786C150.452 252.772 150.457 252.757 150.464 252.742C150.476 252.71 150.49 252.679 150.506 252.649C150.524 252.61 150.544 252.573 150.566 252.537C150.586 252.492 150.61 252.451 150.638 252.412C150.692 252.324 150.752 252.231 150.818 252.144C150.866 252.078 150.919 252.016 150.974 251.956C150.992 251.926 151.015 251.899 151.04 251.875C151.064 251.85 151.088 251.819 151.118 251.788C151.131 251.768 151.147 251.751 151.166 251.738C151.213 251.681 151.266 251.629 151.322 251.582C151.536 251.377 151.765 251.19 152.006 251.021C152.09 250.964 152.18 250.908 152.264 250.846C152.868 250.47 153.505 250.152 154.165 249.898C154.393 249.81 154.621 249.729 154.867 249.642C154.957 249.617 155.041 249.586 155.131 249.555C155.263 249.511 155.395 249.467 155.533 249.436C156.217 249.224 156.955 249.043 157.753 248.875C157.993 248.825 158.245 248.775 158.496 248.731C158.7 248.694 158.91 248.656 159.12 248.619C160.902 248.326 162.924 248.107 165.155 247.964C165.365 247.951 165.575 247.939 165.785 247.926C166.031 247.914 166.277 247.901 166.529 247.889C166.739 247.876 166.955 247.87 167.171 247.864C167.381 247.852 167.597 247.845 167.819 247.839C168.425 247.82 169.048 247.802 169.684 247.789C171.496 247.758 173.404 247.77 175.407 247.814C176.337 247.833 177.285 247.864 178.257 247.908C178.317 247.908 178.383 247.914 178.443 247.914C179.288 247.939 180.146 247.983 181.016 248.026C181.628 248.057 182.246 248.089 182.864 248.126C183.446 248.163 184.033 248.201 184.627 248.245C185.089 248.269 185.551 248.307 186.019 248.338C186.415 248.369 186.811 248.4 187.207 248.425C187.681 248.463 188.155 248.5 188.635 248.538C189.294 248.594 189.954 248.65 190.626 248.706C191.292 248.769 191.97 248.831 192.648 248.893C193.326 248.956 194.01 249.024 194.693 249.093C194.765 249.099 194.831 249.105 194.897 249.112C195.521 249.18 196.145 249.243 196.775 249.311C200.266 249.679 203.86 250.11 207.555 250.603C209.762 250.896 211.998 251.21 214.262 251.545C217.699 252.05 221.19 252.599 224.706 253.185C228.227 253.778 231.768 254.404 235.329 255.063C236.229 255.232 237.129 255.4 238.035 255.575C239.139 255.787 240.243 256.003 241.346 256.223C242.042 256.361 242.738 256.498 243.434 256.641C244.262 256.81 245.096 256.978 245.923 257.147C251.376 258.27 256.799 259.467 262.09 260.721C262.96 260.927 263.83 261.139 264.694 261.345C266.421 261.763 268.133 262.187 269.829 262.618C270.297 262.736 270.759 262.855 271.22 262.973C272.378 263.273 273.524 263.572 274.658 263.872V263.878C274.724 263.891 274.79 263.909 274.856 263.928C275.684 264.146 276.505 264.365 277.321 264.589C279.247 265.113 281.141 265.641 283.002 266.174C284.238 266.536 285.462 266.891 286.667 267.253C288.473 267.802 290.243 268.351 291.964 268.9C292.39 269.037 292.816 269.175 293.236 269.306C294.496 269.717 295.732 270.127 296.943 270.534C297.903 270.859 298.839 271.19 299.763 271.52C300.687 271.851 301.593 272.181 302.48 272.512C303.056 272.724 303.62 272.943 304.178 273.155C304.994 273.467 305.786 273.778 306.566 274.097C306.806 274.19 307.039 274.29 307.273 274.384C307.711 274.558 308.137 274.739 308.557 274.92C308.839 275.032 309.115 275.151 309.391 275.276C309.661 275.388 309.937 275.507 310.201 275.625C310.471 275.737 310.735 275.856 310.999 275.981C311.221 276.074 311.437 276.174 311.647 276.274C312.073 276.467 312.498 276.661 312.912 276.86C313.116 276.96 313.32 277.054 313.524 277.154L313.992 277.378C314.058 277.416 314.124 277.447 314.19 277.478C314.7 277.727 315.192 277.977 315.672 278.226C316.122 278.464 316.56 278.701 316.98 278.931C317.477 279.206 317.951 279.474 318.407 279.749C318.497 279.799 318.587 279.855 318.677 279.905C318.983 280.086 319.277 280.273 319.571 280.454C320.147 280.822 320.693 281.183 321.203 281.545C321.707 281.907 322.175 282.263 322.612 282.618C322.612 282.625 322.612 282.625 322.618 282.625C322.828 282.799 323.032 282.974 323.224 283.142C323.536 283.423 323.824 283.691 324.088 283.966C324.177 284.051 324.261 284.14 324.34 284.234C324.375 284.264 324.407 284.298 324.436 284.334C324.562 284.477 324.688 284.621 324.808 284.764C324.952 284.939 325.084 285.114 325.21 285.288C325.27 285.376 325.336 285.463 325.39 285.55C325.462 285.656 325.534 285.769 325.594 285.875C325.648 285.962 325.696 286.056 325.744 286.143C325.871 286.368 325.98 286.604 326.068 286.848C326.133 287.014 326.188 287.185 326.23 287.36C326.275 287.525 326.309 287.694 326.332 287.865Z" fill="black"/>
</g>
<defs>
<clipPath id="clip0_256_2">
<rect width="472" height="357" fill="white"/>
</clipPath>
</defs>
</svg>
