<svg width="200" height="195" viewBox="0 0 200 195" fill="none" xmlns="http://www.w3.org/2000/svg">
<g clip-path="url(#clip0_270_121)">
<path d="M182.467 194.805V175.25C182.467 175.25 190.025 189.114 182.467 194.805Z" fill="#F1F1F1"/>
<path d="M182.934 194.802L168.647 181.577C168.647 181.577 183.887 185.339 182.934 194.802Z" fill="#F1F1F1"/>
<path d="M132.544 86.2861L56.7299 130.966C56.4645 131.122 56.1487 131.165 55.8516 131.086C55.5545 131.008 55.3004 130.814 55.1451 130.546L6.39195 46.4367C6.23727 46.1692 6.19416 45.8507 6.27207 45.5511C6.34999 45.2515 6.54257 44.9954 6.80756 44.8388L82.6213 0.159376C82.8867 0.00340845 83.2025 -0.0400617 83.4996 0.0385021C83.7967 0.117066 84.0508 0.311248 84.206 0.578449L132.959 84.6882C133.114 84.9557 133.157 85.2742 133.079 85.5738C133.001 85.8734 132.809 86.1295 132.544 86.2861Z" fill="white"/>
<path d="M132.544 86.2861L56.7299 130.966C56.4645 131.122 56.1487 131.165 55.8516 131.086C55.5545 131.008 55.3004 130.814 55.1451 130.546L6.39195 46.4367C6.23727 46.1692 6.19416 45.8507 6.27207 45.5511C6.34999 45.2515 6.54257 44.9954 6.80756 44.8388L82.6213 0.159376C82.8867 0.00340845 83.2025 -0.0400617 83.4996 0.0385021C83.7967 0.117066 84.0508 0.311248 84.206 0.578449L132.959 84.6882C133.114 84.9557 133.157 85.2742 133.079 85.5738C133.001 85.8734 132.809 86.1295 132.544 86.2861ZM7.04139 45.2422C6.88239 45.3361 6.76684 45.4898 6.72009 45.6696C6.67334 45.8493 6.69921 46.0404 6.79203 46.201L55.5452 130.311C55.6384 130.471 55.7908 130.588 55.9691 130.635C56.1473 130.682 56.3368 130.656 56.496 130.562L132.31 85.8827C132.469 85.7888 132.584 85.6351 132.631 85.4553C132.678 85.2756 132.652 85.0845 132.559 84.924L83.806 0.814211C83.7128 0.653883 83.5604 0.537367 83.3821 0.490227C83.2039 0.443088 83.0143 0.469175 82.8551 0.562766L7.04139 45.2422Z" fill="#3F3D56"/>
<path d="M55.7748 53.6183L36.9713 64.6998C36.706 64.8557 36.3901 64.8992 36.093 64.8206C35.7959 64.7421 35.5419 64.5479 35.3866 64.2807L24.3967 45.3207C24.242 45.0531 24.1989 44.7346 24.2768 44.4351C24.3547 44.1355 24.5473 43.8793 24.8123 43.7227L43.6157 32.6413C43.881 32.4853 44.1969 32.4419 44.494 32.5204C44.7911 32.599 45.0452 32.7932 45.2004 33.0604L56.1904 52.0204C56.345 52.2879 56.3881 52.6064 56.3102 52.906C56.2323 53.2056 56.0397 53.4617 55.7748 53.6183ZM25.0461 44.1262C24.8871 44.2201 24.7716 44.3738 24.7248 44.5535C24.6781 44.7333 24.7039 44.9244 24.7968 45.0849L35.7867 64.0449C35.8798 64.2052 36.0323 64.3217 36.2105 64.3689C36.3888 64.416 36.5783 64.3899 36.7375 64.2963L55.5409 53.2149C55.6999 53.121 55.8155 52.9673 55.8622 52.7875C55.909 52.6078 55.8831 52.4167 55.7903 52.2561L44.8004 33.2962C44.7072 33.1358 44.5548 33.0193 44.3765 32.9722C44.1983 32.925 44.0087 32.9511 43.8495 33.0447L25.0461 44.1262Z" fill="#F2F2F2"/>
<path d="M51.7183 59.1209L32.9149 70.2024C32.6761 70.3427 32.3918 70.3819 32.1244 70.3111C31.857 70.2404 31.6283 70.0657 31.4886 69.8252L20.4987 50.8652C20.3595 50.6244 20.3207 50.3378 20.3908 50.0681C20.4609 49.7985 20.6342 49.568 20.8727 49.4271L39.6761 38.3456C39.9149 38.2052 40.1992 38.1661 40.4666 38.2368C40.734 38.3075 40.9626 38.4823 41.1024 38.7228L52.0923 57.6828C52.2315 57.9236 52.2703 58.2102 52.2002 58.4798C52.1301 58.7494 51.9568 58.98 51.7183 59.1209Z" fill="#70979A"/>
<path d="M97.1036 44.8215L38.2929 79.4805C38.0542 79.6212 37.7698 79.6605 37.5023 79.5898C37.2348 79.519 37.0062 79.3441 36.8667 79.1033C36.7271 78.8626 36.6881 78.5758 36.7583 78.3061C36.8284 78.0364 37.002 77.8059 37.2407 77.6652L96.0513 43.0062C96.1696 42.9365 96.3002 42.891 96.4359 42.8723C96.5715 42.8535 96.7095 42.8619 96.842 42.8969C96.9744 42.932 97.0987 42.9929 97.2078 43.0764C97.3168 43.1599 97.4086 43.2642 97.4776 43.3834C97.5467 43.5026 97.5919 43.6343 97.6104 43.7711C97.629 43.9079 97.6207 44.047 97.586 44.1806C97.5513 44.3141 97.4908 44.4394 97.408 44.5494C97.3252 44.6594 97.2218 44.7519 97.1036 44.8215Z" fill="#CCCCCC"/>
<path d="M86.5253 59.4443L41.9173 85.7333C41.799 85.8029 41.6684 85.8484 41.5327 85.8672C41.3971 85.8859 41.2591 85.8776 41.1267 85.8425C40.8592 85.7718 40.6305 85.5968 40.491 85.3561C40.3515 85.1154 40.3125 84.8286 40.3826 84.5589C40.4528 84.2892 40.6263 84.0586 40.865 83.918L85.4731 57.629C85.5913 57.5593 85.722 57.5138 85.8576 57.4951C85.9933 57.4763 86.1313 57.4847 86.2637 57.5197C86.3962 57.5548 86.5205 57.6157 86.6295 57.6992C86.7386 57.7827 86.8303 57.887 86.8994 58.0062C86.9685 58.1254 87.0136 58.2571 87.0322 58.3939C87.0508 58.5307 87.0425 58.6698 87.0078 58.8034C86.973 58.9369 86.9125 59.0622 86.8298 59.1722C86.747 59.2822 86.6436 59.3747 86.5253 59.4443Z" fill="#CCCCCC"/>
<path d="M83.5753 21.9455L57.5706 37.2709C57.3319 37.4116 57.0475 37.4509 56.78 37.3802C56.5125 37.3095 56.2839 37.1345 56.1443 36.8938C56.0048 36.6531 55.9658 36.3663 56.036 36.0966C56.1061 35.8269 56.2796 35.5963 56.5184 35.4556L82.5231 20.1302C82.7618 19.9895 83.0462 19.9502 83.3137 20.021C83.4461 20.056 83.5704 20.117 83.6795 20.2004C83.7886 20.2839 83.8803 20.3882 83.9494 20.5074C84.0185 20.6266 84.0636 20.7583 84.0822 20.8951C84.1008 21.0319 84.0925 21.171 84.0577 21.3046C84.023 21.4381 83.9625 21.5635 83.8798 21.6734C83.797 21.7834 83.6935 21.8759 83.5753 21.9455Z" fill="#CCCCCC"/>
<path d="M80.7097 32.0229L61.1949 43.5236C61.0767 43.5933 60.9461 43.6388 60.8104 43.6576C60.6748 43.6763 60.5368 43.6679 60.4043 43.6329C60.2719 43.5979 60.1476 43.5369 60.0385 43.4534C59.9294 43.37 59.8378 43.2657 59.7687 43.1465C59.6996 43.0273 59.6544 42.8955 59.6358 42.7587C59.6173 42.622 59.6256 42.4828 59.6603 42.3493C59.695 42.2157 59.7555 42.0904 59.8383 41.9804C59.9211 41.8704 60.0245 41.778 60.1427 41.7083L79.6575 30.2076C79.8963 30.0669 80.1807 30.0276 80.4481 30.0984C80.7156 30.1691 80.9443 30.3441 81.0838 30.5848C81.2233 30.8255 81.2623 31.1123 81.1922 31.382C81.122 31.6517 80.9485 31.8823 80.7097 32.0229Z" fill="#CCCCCC"/>
<path d="M104.352 57.3271L45.5416 91.9861C45.3029 92.1268 45.0185 92.1661 44.751 92.0954C44.4835 92.0246 44.2548 91.8497 44.1153 91.6089C43.9758 91.3682 43.9368 91.0815 44.0069 90.8117C44.0771 90.542 44.2506 90.3115 44.4894 90.1708L103.3 55.5118C103.539 55.3711 103.823 55.3318 104.091 55.4026C104.358 55.4733 104.587 55.6483 104.726 55.889C104.866 56.1297 104.905 56.4165 104.835 56.6862C104.765 56.9559 104.591 57.1865 104.352 57.3271Z" fill="#CCCCCC"/>
<path d="M93.774 71.9499L49.1659 98.2389C49.0477 98.3085 48.917 98.3541 48.7814 98.3728C48.6457 98.3916 48.5078 98.3832 48.3753 98.3482C48.2429 98.3131 48.1186 98.2521 48.0095 98.1687C47.9004 98.0852 47.8087 97.9809 47.7396 97.8617C47.6705 97.7425 47.6254 97.6108 47.6068 97.474C47.5882 97.3372 47.5965 97.1981 47.6313 97.0645C47.666 96.931 47.7265 96.8056 47.8093 96.6957C47.892 96.5857 47.9955 96.4932 48.1137 96.4236L92.7218 70.1346C92.84 70.065 92.9706 70.0195 93.1063 70.0007C93.242 69.982 93.3799 69.9903 93.5124 70.0254C93.6448 70.0604 93.7691 70.1214 93.8782 70.2048C93.9873 70.2883 94.0789 70.3926 94.148 70.5118C94.2171 70.631 94.2623 70.7627 94.2809 70.8995C94.2995 71.0363 94.2911 71.1754 94.2564 71.309C94.2217 71.4425 94.1612 71.5679 94.0784 71.6778C93.9957 71.7878 93.8922 71.8803 93.774 71.9499Z" fill="#CCCCCC"/>
<path d="M111.601 69.8328L52.7903 104.492C52.672 104.561 52.5414 104.607 52.4057 104.626C52.2701 104.644 52.1321 104.636 51.9996 104.601C51.8672 104.566 51.7429 104.505 51.6338 104.422C51.5248 104.338 51.4331 104.234 51.364 104.115C51.2949 103.995 51.2497 103.864 51.2312 103.727C51.2126 103.59 51.2209 103.451 51.2556 103.317C51.2903 103.184 51.3508 103.058 51.4336 102.949C51.5164 102.839 51.6198 102.746 51.738 102.676L110.549 68.0174C110.667 67.9478 110.798 67.9023 110.933 67.8835C111.069 67.8648 111.207 67.8731 111.339 67.9082C111.472 67.9432 111.596 68.0042 111.705 68.0876C111.814 68.1711 111.906 68.2754 111.975 68.3946C112.044 68.5138 112.089 68.6456 112.108 68.7823C112.126 68.9191 112.118 69.0582 112.083 69.1918C112.049 69.3253 111.988 69.4507 111.905 69.5607C111.823 69.6706 111.719 69.7631 111.601 69.8328Z" fill="#CCCCCC"/>
<path d="M115.225 76.0854L56.4146 110.744C56.2964 110.814 56.1657 110.86 56.0301 110.878C55.8944 110.897 55.7564 110.889 55.624 110.854C55.4916 110.819 55.3673 110.758 55.2582 110.674C55.1491 110.591 55.0574 110.486 54.9883 110.367C54.9192 110.248 54.8741 110.116 54.8555 109.98C54.8369 109.843 54.8452 109.704 54.88 109.57C54.9147 109.437 54.9752 109.311 55.0579 109.201C55.1407 109.091 55.2442 108.999 55.3624 108.929L114.173 74.2701C114.291 74.2005 114.422 74.155 114.558 74.1362C114.693 74.1175 114.831 74.1258 114.964 74.1609C115.096 74.1959 115.22 74.2569 115.329 74.3403C115.439 74.4238 115.53 74.5281 115.599 74.6473C115.668 74.7665 115.714 74.8982 115.732 75.035C115.751 75.1718 115.742 75.3109 115.708 75.4445C115.673 75.578 115.612 75.7034 115.53 75.8133C115.447 75.9233 115.343 76.0158 115.225 76.0854Z" fill="#CCCCCC"/>
<path d="M96.2071 100.427C97.0242 99.4565 97.7596 98.4193 98.4058 97.3258C98.9854 96.3395 99.5539 95.2849 99.6817 94.128C99.747 93.6354 99.6961 93.1342 99.5331 92.6651C99.3701 92.1961 99.0997 91.7725 98.7437 91.4287C98.3997 91.1089 97.9636 90.9078 97.4987 90.8545C97.0338 90.8012 96.5641 90.8985 96.1576 91.1323C95.7463 91.3703 95.4065 91.7161 95.1742 92.1329C94.9418 92.5498 94.8256 93.0223 94.8378 93.5003C94.8712 94.0266 95.022 94.5386 95.279 94.9979C95.5359 95.4573 95.8925 95.8522 96.3219 96.1533C98.0602 97.4232 100.775 97.3568 102.628 96.3904C104.715 95.3019 105.793 92.4541 104.153 90.5046C103.812 90.0991 103.245 90.5523 103.33 90.9897C103.439 91.5805 103.767 92.1073 104.247 92.4625C104.728 92.8176 105.325 92.9744 105.916 92.9007C106.507 92.827 107.049 92.5284 107.429 92.066C107.809 91.6035 108 91.012 107.963 90.4124L107.226 90.8467C108.129 91.2503 109.122 91.4068 110.105 91.3006C111.088 91.1943 112.025 90.8289 112.823 90.2412C113.218 89.952 113.571 89.6084 113.871 89.2204C114.232 88.7459 114.838 88.4392 115.328 88.0973L118.865 85.6335C119.385 85.2711 118.89 84.4075 118.366 84.7729L115.163 87.0042C114.629 87.3761 114.092 87.7434 113.562 88.1199C113.183 88.3891 112.949 88.8237 112.604 89.1434C111.951 89.7359 111.144 90.1289 110.278 90.2767C109.411 90.4245 108.521 90.3209 107.711 89.978C107.635 89.9371 107.551 89.9164 107.465 89.9179C107.379 89.9195 107.296 89.9432 107.222 89.9868C107.148 90.0304 107.086 90.0924 107.043 90.1669C106.999 90.2415 106.976 90.326 106.974 90.4124C107.013 90.7702 106.91 91.129 106.688 91.4108C106.466 91.6926 106.142 91.8744 105.788 91.9168C105.433 91.9591 105.077 91.8585 104.795 91.6369C104.514 91.4152 104.331 91.0905 104.286 90.7334L103.463 91.2185C104.521 92.476 103.816 94.4049 102.598 95.2487C101.235 96.1924 99.2216 96.3562 97.6856 95.7696C97.3088 95.6389 96.9628 95.4312 96.6692 95.1596C96.3756 94.888 96.1407 94.5582 95.9791 94.1909C95.8294 93.8591 95.7867 93.4883 95.857 93.1307C95.9273 92.7732 96.1071 92.4468 96.3711 92.1978C96.5998 91.9699 96.9074 91.8406 97.2289 91.8371C97.5504 91.8337 97.8606 91.9563 98.0941 92.1792C98.3485 92.441 98.5351 92.7619 98.6375 93.1135C98.7399 93.4652 98.755 93.8368 98.6815 94.1957C98.5231 95.1944 97.9755 96.1154 97.4661 96.9685C96.8845 97.9405 96.2267 98.8641 95.4991 99.7305C95.0913 100.217 95.7949 100.918 96.2071 100.427Z" fill="#70979A"/>
<path d="M104.985 124.129C105.07 124.218 105.148 124.313 105.218 124.413L116.17 124.143L117.447 121.789L121.223 123.269L119.363 127.658C119.212 128.013 118.952 128.308 118.621 128.501C118.29 128.694 117.905 128.773 117.526 128.727L105.153 127.22C104.861 127.592 104.463 127.866 104.013 128.006C103.563 128.145 103.082 128.143 102.633 127.999C102.184 127.856 101.789 127.578 101.5 127.203C101.212 126.828 101.044 126.373 101.018 125.899C100.992 125.424 101.11 124.954 101.356 124.549C101.602 124.144 101.965 123.824 102.395 123.632C102.826 123.44 103.304 123.385 103.767 123.474C104.229 123.563 104.654 123.791 104.985 124.129Z" fill="#FFB7B7"/>
<path d="M140.684 191.192H137.084L135.371 177.187L140.685 177.187L140.684 191.192Z" fill="#FFB7B7"/>
<path d="M141.603 194.712L129.992 194.711V194.563C129.992 193.355 130.468 192.196 131.316 191.341C132.163 190.487 133.313 190.006 134.511 190.006H134.511L141.603 190.007L141.603 194.712Z" fill="#2F2E41"/>
<path d="M107.987 191.111L104.676 189.685L108.557 176.127L113.444 178.233L107.987 191.111Z" fill="#FFB7B7"/>
<path d="M107.461 194.711L96.7833 190.112L96.841 189.976C97.3119 188.865 98.2013 187.987 99.3136 187.537C100.426 187.087 101.67 187.101 102.772 187.575L102.772 187.576L109.294 190.385L107.461 194.711Z" fill="#2F2E41"/>
<path d="M123.182 127.163L122.921 131.418L130.533 132.239L138.497 133.099L136.153 126.638L123.182 127.163Z" fill="#FFB7B7"/>
<path d="M122.682 131.473L119.725 110.688L124.85 108.994L126.355 106.913L133.68 107.35L134.756 109.779L138.662 111.64L138.061 122.88L138.499 132.284L122.682 131.473Z" fill="#2F2E41"/>
<path d="M120.821 125.903L115.608 123.8L115.63 123.706C115.652 123.612 117.871 114.263 118.165 112.76C118.472 111.195 119.594 110.762 119.641 110.745L119.676 110.732L121.739 111.365L122.645 118.544L120.821 125.903Z" fill="#2F2E41"/>
<path d="M110.669 188.65L103.73 187.214L114.821 156.355L118.617 145.83C118.617 145.83 121.024 137.39 122.112 134.125L122.768 129.742L138.308 131.477C138.308 131.477 142.648 137.904 141.329 148.379L141.926 187.753L134.986 188.112L129.174 148.401L118.973 170.17C118.973 170.17 115.757 179.46 113.457 181.473L110.669 188.65Z" fill="#2F2E41"/>
<path d="M132.076 132.938C132.198 132.935 132.321 132.942 132.442 132.959L139.691 124.677L138.848 122.132L142.491 120.347L144.418 124.706C144.574 125.059 144.612 125.452 144.527 125.828C144.442 126.204 144.238 126.542 143.946 126.791L134.438 134.915C134.51 135.384 134.44 135.865 134.235 136.292C134.03 136.72 133.701 137.074 133.291 137.308C132.882 137.543 132.411 137.646 131.942 137.604C131.473 137.562 131.028 137.377 130.666 137.074C130.303 136.771 130.041 136.364 129.914 135.906C129.787 135.449 129.801 134.964 129.954 134.515C130.107 134.066 130.392 133.675 130.771 133.393C131.15 133.111 131.606 132.953 132.076 132.938Z" fill="#FFB7B7"/>
<path d="M139.112 125.483L136.088 118.311L137.268 113.315L138.539 111.696C138.632 111.656 138.732 111.635 138.833 111.636C138.935 111.637 139.035 111.659 139.127 111.701C139.596 111.891 139.995 112.474 140.313 113.434L143.147 121.574L139.112 125.483Z" fill="#2F2E41"/>
<path d="M123.423 104.255V98.8473C123.423 96.9256 124.18 95.0825 125.528 93.7236C126.875 92.3647 128.703 91.6013 130.609 91.6013C132.515 91.6013 134.343 92.3647 135.69 93.7236C137.038 95.0825 137.795 96.9256 137.795 98.8473V104.255C137.795 104.513 137.693 104.76 137.512 104.943C137.331 105.125 137.086 105.228 136.83 105.228H124.388C124.132 105.228 123.887 105.125 123.706 104.943C123.525 104.76 123.423 104.513 123.423 104.255Z" fill="#2F2E41"/>
<path d="M129.132 105.102C132.042 105.102 134.401 102.724 134.401 99.7898C134.401 96.8558 132.042 94.4773 129.132 94.4773C126.223 94.4773 123.864 96.8558 123.864 99.7898C123.864 102.724 126.223 105.102 129.132 105.102Z" fill="#FFB7B7"/>
<path d="M121.723 99.28C121.725 97.7603 122.324 96.3034 123.39 95.2288C124.455 94.1543 125.9 93.5498 127.407 93.5481H128.48C129.987 93.5498 131.432 94.1543 132.498 95.2288C133.563 96.3034 134.163 97.7603 134.165 99.28V99.3881H131.898L131.125 97.2053L130.97 99.3881H129.799L129.409 98.2868L129.331 99.3881H121.723L121.723 99.28Z" fill="#2F2E41"/>
<path d="M128.614 105.836C128.507 105.691 128.444 105.518 128.431 105.338C128.417 105.158 128.455 104.978 128.538 104.818C129.675 102.638 131.266 98.6103 129.154 96.1262L129.002 95.9478H135.134V105.231L129.564 106.222C129.507 106.232 129.45 106.237 129.393 106.238C129.241 106.238 129.091 106.201 128.955 106.131C128.82 106.062 128.703 105.96 128.614 105.836Z" fill="#2F2E41"/>
<path d="M57.0788 188.133L60.333 189.306L66.3676 177.207L61.5646 175.476L57.0788 188.133Z" fill="#9F616A"/>
<path d="M55.1213 191.014L56.6284 186.762L63.0372 189.072C64.1196 189.463 65.0038 190.272 65.4959 191.32C65.9879 192.368 66.0476 193.57 65.6619 194.662L65.6144 194.796L55.1213 191.014Z" fill="#2F2E41"/>
<path d="M78.2402 191.378L81.696 191.378L83.3402 177.938L78.2397 177.938L78.2402 191.378Z" fill="#9F616A"/>
<path d="M77.3587 190.241L84.1644 190.24H84.1647C84.7343 190.24 85.2983 190.354 85.8245 190.573C86.3507 190.793 86.8288 191.115 87.2316 191.521C87.6343 191.927 87.9538 192.41 88.1718 192.94C88.3898 193.471 88.502 194.039 88.502 194.614V194.756L77.3589 194.756L77.3587 190.241Z" fill="#2F2E41"/>
<path d="M70.3643 105.509L71.8673 102.515C71.8673 102.515 77.4662 103.929 77.9752 107.201L70.3643 105.509Z" fill="#F1F1F1"/>
<path d="M64.163 139.749L68.2501 162.747L57.3976 182.099L63.881 184.658L74.8745 165.898L76.2839 160.782L77.1295 187.5L82.9767 187.321L85.6574 162.373L81.3576 139.181L64.163 139.749Z" fill="#2F2E41"/>
<path d="M71.9215 145.186C65.9171 145.186 62.1048 144.028 62.0194 144.01L61.8812 143.98L65.0087 129.359L65.1495 115.872C65.1495 110.157 68.8799 105.944 69.3975 105.555C69.4847 105.208 69.6459 104.884 69.8699 104.607C70.0939 104.329 70.3753 104.104 70.6944 103.948C71.9387 103.378 73.4593 104.062 73.5233 104.091L78.0872 105.816L78.1087 105.88C78.1636 106.044 84.1749 125.942 84.1749 125.942C84.1749 125.942 83.8111 143.329 83.6843 143.898C83.6843 143.898 75.2578 145.186 71.9215 145.186Z" fill="#3F3D56"/>
<path d="M76.5353 101.572C79.9421 101.572 82.7038 98.7874 82.7038 95.3524C82.7038 91.9173 79.9421 89.1326 76.5353 89.1326C73.1286 89.1326 70.3669 91.9173 70.3669 95.3524C70.3669 98.7874 73.1286 101.572 76.5353 101.572Z" fill="#9F616A"/>
<path opacity="0.2" d="M69.6577 116.975L80.4493 132.158L82.0429 125.068L69.6577 116.975Z" fill="black"/>
<path d="M103.492 127.306C103.188 127.548 102.836 127.72 102.459 127.81C102.082 127.9 101.691 127.905 101.312 127.826C100.933 127.747 100.576 127.585 100.266 127.351C99.9557 127.118 99.7001 126.819 99.5171 126.475L90.2284 127.974L92.2407 123.482L100.753 122.747C101.346 122.475 102.018 122.432 102.64 122.626C103.262 122.82 103.793 123.238 104.13 123.8C104.468 124.362 104.589 125.029 104.472 125.675C104.354 126.321 104.005 126.901 103.492 127.306Z" fill="#9F616A"/>
<path d="M92.7191 123.226L96.0566 122.896L96.9815 127.591L92.7818 127.666L92.7191 123.226Z" fill="#F1F1F1"/>
<path d="M95.455 129.226L79.1092 127.759L70.8556 114.523L70.8302 114.406C70.596 113.325 70.76 112.195 71.2916 111.227C71.8233 110.259 72.6862 109.519 73.7193 109.145C74.7525 108.771 75.8851 108.79 76.9058 109.196C77.9266 109.603 78.7656 110.371 79.2663 111.355L84.1113 120.885L93.8895 122.375L95.455 129.226Z" fill="#3F3D56"/>
<path d="M71.2812 100.753L76.401 100.938C76.7131 100.949 77.5601 97.5531 77.671 96.8486C77.7586 96.39 78.0088 95.9792 78.3749 95.6929C78.7409 95.4067 79.1978 95.2646 79.6602 95.2932C80.0434 95.3297 81.0099 94.6077 82.0071 93.7528C83.9004 92.1298 83.8019 89.0815 81.7221 87.7101C81.6653 87.6726 81.6095 87.6384 81.5547 87.6074C80.2427 86.8669 78.7079 86.6183 77.2044 86.5993C75.8415 86.5821 74.4399 86.7551 73.2392 87.4055C71.0866 88.5717 69.941 91.1201 69.8404 93.5819C69.7397 96.0438 70.5224 98.4511 71.4106 100.747" fill="#2F2E41"/>
<path d="M199.625 195H0.268097C0.196993 195 0.128801 194.972 0.0785234 194.921C0.0282456 194.87 0 194.801 0 194.73C0 194.658 0.0282456 194.589 0.0785234 194.539C0.128801 194.488 0.196993 194.459 0.268097 194.459H199.732C199.803 194.459 199.871 194.488 199.921 194.539C199.972 194.589 200 194.658 200 194.73C200 194.879 199.773 195 199.625 195Z" fill="#CBCBCB"/>
</g>
<defs>
<clipPath id="clip0_270_121">
<rect width="200" height="195" fill="white"/>
</clipPath>
</defs>
</svg>
