<svg width="65" height="65" viewBox="0 0 65 65" fill="none" xmlns="http://www.w3.org/2000/svg">
<path d="M14.625 6.5C10.1377 6.5 6.5 10.1377 6.5 14.625V43.875C6.5 48.3623 10.1377 52 14.625 52H30.7926C31.1501 50.8251 31.7125 49.725 32.4513 48.75H14.625C11.9326 48.75 9.75 46.5673 9.75 43.875V19.4959H48.75V32.3136L49.0815 31.9821C49.947 31.1168 50.9398 30.457 52 30.0028V14.625C52 10.1377 48.3623 6.5 43.875 6.5H14.625ZM9.74682 14.621C9.74682 11.9286 11.9295 9.74604 14.6218 9.74604H43.8717C46.5644 9.74604 48.7467 11.9286 48.7467 14.621V16.246H9.74682V14.621ZM27.1449 23.2219C27.7795 23.8565 27.7795 24.8854 27.1449 25.52L20.1689 32.4959L27.1449 39.4719C27.7795 40.1066 27.7795 41.1353 27.1449 41.77C26.5103 42.4047 25.4814 42.4047 24.8468 41.77L16.7218 33.645C16.0872 33.0102 16.0872 31.9815 16.7218 31.3469L24.8468 23.2219C25.4814 22.5873 26.5103 22.5873 27.1449 23.2219ZM32.9758 39.4719C32.3413 40.1066 32.3414 41.1356 32.9758 41.77C33.6105 42.4047 34.6395 42.4047 35.2742 41.77L43.3992 33.645C44.0336 33.0106 44.0336 31.9816 43.3992 31.347L35.2742 23.222C34.6395 22.5874 33.6105 22.5874 32.9758 23.222C32.3414 23.8566 32.3414 24.8855 32.9758 25.5201L39.9519 32.496L32.9758 39.4719ZM51.3799 34.2803L35.6844 49.9759C34.7691 50.8911 34.1198 52.0377 33.8059 53.2932L32.5891 58.1614C32.0597 60.2784 33.9774 62.1959 36.0945 61.6668L40.9627 60.4497C42.2182 60.1357 43.3647 59.4867 44.28 58.5715L59.9755 42.8759C62.349 40.5022 62.349 36.6538 59.9755 34.2803C57.602 31.9066 53.7534 31.9066 51.3799 34.2803Z" fill="#F3F0ED"/>
</svg>
