<svg width="30" height="30" viewBox="0 0 30 30" fill="none" xmlns="http://www.w3.org/2000/svg">
<path d="M25.1863 26.0409H4.81285C3.59357 26.0394 2.4247 25.5542 1.56262 24.692C0.700541 23.8298 0.21564 22.6608 0.214279 21.4415V8.5578C0.21564 7.3386 0.700568 6.16973 1.56267 5.30762C2.42478 4.44552 3.59365 3.96059 4.81285 3.95923H25.1863C26.4056 3.96059 27.5745 4.44549 28.4368 5.30757C29.299 6.16965 29.7841 7.33852 29.7857 8.5578V21.4415C29.7843 22.6609 29.2993 23.83 28.4371 24.6923C27.5748 25.5546 26.4057 26.0396 25.1863 26.0409ZM4.81285 6.10209C4.16176 6.10277 3.53754 6.36171 3.07715 6.8221C2.61676 7.28249 2.35782 7.90671 2.35714 8.5578V21.4415C2.35759 22.0928 2.61643 22.7172 3.07685 23.1778C3.53726 23.6383 4.16162 23.8974 4.81285 23.8981H25.1863C25.8376 23.8974 26.462 23.6384 26.9226 23.1778C27.3831 22.7173 27.6422 22.0928 27.6429 21.4415V8.5578C27.6419 7.90663 27.3828 7.28241 26.9223 6.82205C26.4618 6.36168 25.8374 6.10277 25.1863 6.10209H4.81285Z" fill="#F3F0ED"/>
<path d="M14.988 17.8842C14.089 17.893 13.2133 17.5986 12.5023 17.0485L1.04401 7.91732C0.821794 7.74011 0.679075 7.4819 0.647247 7.19947C0.61542 6.91704 0.69709 6.63353 0.874293 6.41132C1.0515 6.1891 1.30971 6.04638 1.59214 6.01456C1.87457 5.98273 2.15808 6.0644 2.38029 6.2416L13.8352 15.3727C14.1735 15.6128 14.5784 15.7412 14.9933 15.7401C15.4081 15.739 15.8123 15.6085 16.1494 15.3667L27.4629 6.24589C27.6839 6.06755 27.9668 5.98434 28.2492 6.01456C28.5317 6.04478 28.7905 6.18595 28.9689 6.40703C29.1472 6.62811 29.2304 6.91098 29.2002 7.1934C29.17 7.47583 29.0288 7.73469 28.8077 7.91303L17.4977 17.0339C16.7818 17.5937 15.8968 17.8936 14.988 17.8842Z" fill="#F3F0ED"/>
</svg>
