<svg width="40" height="40" viewBox="0 0 40 40" fill="none" xmlns="http://www.w3.org/2000/svg">
<g clip-path="url(#clip0_268_100)">
<path d="M8.88 0.0800959C9.11823 -0.00649791 9.37621 -0.0233914 9.62369 0.0313954C9.87118 0.0861822 10.0979 0.210379 10.2773 0.389429L15.8187 5.9361L15.7333 6.08543L5.8 26.6348L8.88 0.0800959ZM6.032 31.8401L19.312 39.8108C19.4887 39.9168 19.6876 39.9803 19.893 39.9965C20.0985 40.0127 20.3049 39.9811 20.496 39.9041L33.8293 34.5708C34.0998 34.4618 34.3271 34.2672 34.4764 34.0168C34.6257 33.7663 34.6888 33.4738 34.656 33.1841L31.9893 9.1841C31.9617 8.94176 31.8682 8.71164 31.7189 8.51878C31.5696 8.32591 31.3703 8.17769 31.1426 8.09025C30.9149 8.0028 30.6676 7.97949 30.4276 8.02283C30.1876 8.06618 29.964 8.17453 29.7813 8.3361L25.368 12.2588L6.032 31.8401ZM23.8347 10.0161L21.1093 5.9281C20.9826 5.73786 20.8091 5.58339 20.6055 5.47953C20.4019 5.37567 20.175 5.3259 19.9466 5.33501C19.7182 5.34411 19.4959 5.41178 19.3012 5.53152C19.1065 5.65126 18.9459 5.81904 18.8347 6.01876L18.008 7.50676L10.0453 23.9788L23.8347 10.0161Z" fill="black"/>
</g>
<defs>
<clipPath id="clip0_268_100">
<rect width="40" height="40" fill="white"/>
</clipPath>
</defs>
</svg>
