<svg width="40" height="40" viewBox="0 0 40 40" fill="none" xmlns="http://www.w3.org/2000/svg">
<path fill-rule="evenodd" clip-rule="evenodd" d="M36.0383 18.5166L21.4833 3.95995C21.0804 3.55845 20.5347 3.33301 19.9658 3.33301C19.397 3.33301 18.8513 3.55845 18.4483 3.95995L15.4267 6.98495L19.26 10.8183C19.712 10.665 20.1979 10.6417 20.6625 10.7509C21.1271 10.8601 21.5517 11.0975 21.8881 11.4361C22.2244 11.7747 22.459 12.2009 22.5651 12.6663C22.6712 13.1316 22.6446 13.6173 22.4883 14.0683L26.1833 17.7633C26.7355 17.5735 27.336 17.5787 27.8848 17.778C28.4336 17.9772 28.8975 18.3586 29.1993 18.8584C29.501 19.3583 29.6223 19.9465 29.543 20.5249C29.4636 21.1034 29.1885 21.6371 28.7633 22.0373C28.3381 22.4375 27.7886 22.6798 27.2065 22.724C26.6243 22.7681 26.0445 22.6114 25.5639 22.28C25.0832 21.9486 24.7306 21.4624 24.565 20.9025C24.3993 20.3427 24.4305 19.7429 24.6533 19.2033L21.2067 15.7566V24.825C21.7304 25.0841 22.1494 25.5149 22.394 26.0455C22.6385 26.5762 22.6938 27.1746 22.5506 27.7411C22.4074 28.3076 22.0744 28.8079 21.6071 29.1586C21.1397 29.5093 20.5663 29.6892 19.9824 29.6683C19.3984 29.6475 18.8393 29.4271 18.3982 29.044C17.957 28.6608 17.6605 28.1381 17.5581 27.5628C17.4557 26.9876 17.5535 26.3946 17.8353 25.8827C18.1171 25.3709 18.5658 24.9711 19.1067 24.75V15.6C18.7945 15.4725 18.5107 15.2844 18.2717 15.0466C18.0327 14.8088 17.8432 14.5259 17.7142 14.2143C17.5853 13.9028 17.5194 13.5688 17.5204 13.2316C17.5214 12.8944 17.5892 12.5607 17.72 12.25L13.9417 8.46829L3.96167 18.4466C3.55965 18.8497 3.33389 19.3957 3.33389 19.965C3.33389 20.5342 3.55965 21.0802 3.96167 21.4833L18.5167 36.0366C18.9196 36.4381 19.4653 36.6636 20.0342 36.6636C20.603 36.6636 21.1487 36.4381 21.5517 36.0366L36.0383 21.55C36.4403 21.1469 36.6661 20.6009 36.6661 20.0316C36.6661 19.4624 36.4403 18.9163 36.0383 18.5133" fill="black"/>
</svg>
