<svg width="40" height="40" viewBox="0 0 40 40" fill="none" xmlns="http://www.w3.org/2000/svg">
<path d="M15.3413 31.1507L17.0573 30.1427L15.14 30.676C13.6867 31.0827 12.9973 31.6294 13.088 32.2987C13.2493 33.476 16.0853 34.3974 19.544 34.3974C21.284 34.3974 23.9107 34.16 26.5627 33.0227L27.1467 32.772L26.5533 32.5427C25.3467 32.0734 24.468 31.5267 24.4587 31.5214L24.3733 31.4667L24.2747 31.4854C22.168 31.8867 20.816 32.04 19.4533 32.04C18.5627 32.04 17.62 31.9774 16.2987 31.8267C15.1453 31.6907 15.0413 31.4574 15.04 31.4547C15.0333 31.404 15.18 31.248 15.3413 31.1507Z" fill="black"/>
<path d="M18.5107 38.1427C26.0973 38.1427 32.816 36.7001 33.184 34.9947C33.252 34.6801 33.1533 34.2267 32.2987 33.8414L30.64 33.0934L32.0253 34.2761C32.028 34.2761 32.2293 34.4534 32.188 34.6481C32.1613 34.7761 31.984 35.1094 30.9053 35.4347C28.668 36.1121 23.6493 36.5854 18.7 36.5854C14.0813 36.5854 10.5227 36.1894 8.93466 35.4974C8.73733 35.412 8.69466 35.3467 8.69066 35.3467C8.73866 35.1041 9.92399 34.5867 10.9187 34.3734C11.5373 34.2401 11.9547 34.2254 12.1067 34.2254L13.104 34.2854L12.3547 33.7587C12.1013 33.5787 11.712 33.488 11.196 33.488C9.30399 33.488 5.81599 34.7361 5.71733 35.9641C5.63999 36.9201 7.32666 37.1934 7.88133 37.2814C11.4013 37.8547 14.976 38.1427 18.5107 38.1427Z" fill="black"/>
<path d="M15.7213 25.9173L14.1973 26.4226C12.5667 26.964 11.828 27.556 11.9373 28.228C12.1427 29.5066 15.5227 30.08 18.7827 30.08C21.6107 30.08 24.608 29.6586 27.2227 28.8946L27.9947 28.668L27.236 28.4C26.3293 28.0826 25.74 27.4906 25.7333 27.4853L25.636 27.3866L25.5 27.4133C22.9333 27.908 20.9053 28.1293 18.92 28.1293C17.808 28.1293 16.656 28.0613 15.184 27.908C14.1427 27.8013 14.0213 27.5466 14.0067 27.496C13.9627 27.332 14.2253 27.032 14.4333 26.876L15.7213 25.9173C16.252 25.9306 16.6773 25.9333 16.9173 25.9333C20.7213 25.9333 24.368 25.5506 26.9213 24.876L27.0027 24.84C27.7173 24.3533 28.7253 23.9186 28.736 23.9133L30.8107 23.0226L28.588 23.4186C28.56 23.4266 25.628 23.9466 22.7507 24.1893C22.068 24.2466 21.3773 24.2906 20.6893 24.328L21.7493 23.7813C21.86 23.7266 24.464 22.36 24.9587 20.324C25.1627 19.484 24.9813 18.6586 24.4173 17.864L24.1573 17.5013C23.3307 16.3546 22.6787 15.448 22.896 14.4333C23.192 13.052 25.1387 11.3813 29.208 9.01998L30.7947 8.09998L29.0147 8.54398C28.712 8.61998 21.592 10.4426 20.3307 14.4386C19.8173 16.0653 20.3547 17.808 21.9267 19.62C22.408 20.176 22.628 20.7626 22.5787 21.3626C22.4853 22.4986 21.4747 23.344 21.464 23.352L20.2507 24.3546C17.4773 24.4946 14.8453 24.48 13.4547 24.292C12.3213 24.1413 12.152 23.964 12.144 23.9613C12.2547 23.644 14.0093 22.9826 15.9853 22.5133L17.64 22.12L15.9427 22C15.9427 22 15.8427 21.992 15.6573 21.992C14.784 21.992 12.4533 22.1346 9.69066 23.4706C9.45066 23.5853 8.72399 23.9373 8.84933 24.4813C9.10799 25.604 13.4187 25.8613 15.7213 25.9173Z" fill="black"/>
<path d="M29.12 22.4867L28.6893 23.1614L29.4347 22.864C29.4373 22.864 29.6853 22.768 30.2267 22.6534C31.14 22.4654 32.4387 23.0054 32.7267 24.1814C32.9053 24.9107 32.848 26.848 28.4853 29.1134L28.4 29.172L28.3627 29.2534C28.356 29.2694 28.328 29.3027 28.3053 29.324L26.6387 30.2827L28.524 29.788C33.5587 28.4654 35.1067 26.0774 34.876 24.2827C34.6773 22.744 33.2347 21.624 31.444 21.624C30.9267 21.624 30.4 21.7174 29.876 21.9027C29.3867 22.0734 29.1307 22.4694 29.12 22.4867Z" fill="black"/>
<path d="M20.196 22.38L21.0987 23.1947L20.6067 22.0827C20.2707 21.3227 19.7493 20.5787 19.2453 19.8613C17.496 17.3707 15.844 15.016 20.5333 11.3147C23.6853 8.82533 25.3547 6.37333 25.4933 4.024C25.6173 1.92133 24.44 0.718667 24.3893 0.666667L23.7213 0L23.9547 0.914667C25 5.03733 22.2573 7.184 19.3533 9.45867C17.944 10.5613 16.4893 11.7013 15.58 13.0653C13.6013 16.0333 16.6347 19.164 20.196 22.38Z" fill="black"/>
<path d="M34.4173 35.9507C34.412 35.964 33.7827 37.12 28.8187 38.0547C25.9507 38.5934 22.568 38.88 19.04 38.88C16.1387 38.88 13.3493 38.6854 11.184 38.328L10.2373 38.172L10.9773 38.784C11.076 38.8654 12.0693 39.5867 16.624 39.8774C17.8987 39.9614 19.2387 40 20.608 40C23.896 40 34.6347 39.7187 34.9133 36.0787L35.0107 34.7614L34.4173 35.9507Z" fill="black"/>
</svg>
