<svg width="40" height="40" viewBox="0 0 40 40" fill="none" xmlns="http://www.w3.org/2000/svg">
<path d="M5.33437 3.19995C4.16562 3.19995 3.2 4.16558 3.2 5.33433V34.6656C3.2 35.8343 4.16562 36.7999 5.33437 36.7999H34.6656C35.8344 36.7999 36.8 35.8374 36.8 34.6656V5.33433C36.8 4.16558 35.8375 3.19995 34.6656 3.19995H5.33437ZM5.33437 4.79995H34.6656C34.9625 4.79995 35.2 5.03745 35.2 5.33433V34.6656C35.2 34.9625 34.9625 35.1999 34.6656 35.1999H5.33437C5.0375 35.1999 4.8 34.9625 4.8 34.6656V5.33433C4.8 5.03745 5.0375 4.79995 5.33437 4.79995ZM18.4 18.4V28.4593C18.4 30.0031 17.8156 30.4 16.8 30.4C15.7375 30.4 15 29.7374 14.5125 28.8781L12 30.4C12.7281 31.9406 14.5125 33.5999 16.9875 33.5999C19.725 33.5999 21.6 32.1437 21.6 28.9468V18.4H18.4ZM28.3625 18.4C25.6375 18.4 23.8906 20.1437 23.8906 22.4343C23.8906 24.9187 25.3562 26.0937 27.5594 27.0312L28.3219 27.3593C29.7125 27.9687 30.4 28.3406 30.4 29.3874C30.4 30.2593 29.7375 30.8906 28.4719 30.8906C26.9656 30.8906 26.2531 29.8687 25.6 28.7999L23.2 30.4C24.0969 32.1718 25.7062 33.5999 28.5406 33.5999C31.4406 33.5999 33.6 32.0937 33.6 29.3468C33.6 26.7968 32.1375 25.6624 29.5406 24.5499L28.7781 24.225C27.4687 23.6562 26.9 23.2874 26.9 22.3718C26.9 21.6312 27.4687 21.0625 28.3625 21.0625C29.2406 21.0625 29.8031 21.4343 30.325 22.3718L32.7031 20.8468C31.7 19.075 30.3031 18.4 28.3625 18.4Z" fill="black"/>
</svg>
