<svg width="30" height="30" viewBox="0 0 30 30" fill="none" xmlns="http://www.w3.org/2000/svg">
<path d="M6.71502 28.25H0.495425V10.7246H6.71502V28.25ZM3.60187 8.33398C1.61348 8.33398 0 6.89258 0 5.15234C0 3.41211 1.61348 2 3.60187 2C5.59027 2 7.20375 3.41211 7.20375 5.15234C7.20375 6.89258 5.59027 8.33398 3.60187 8.33398ZM29.9933 28.25H23.7871V19.7188C23.7871 17.6855 23.7402 15.0781 20.5534 15.0781C17.3198 15.0781 16.8244 17.2871 16.8244 19.5723V28.25H10.6115V10.7246H16.5767V13.1152H16.6637C17.4939 11.7383 19.5224 10.2852 22.5485 10.2852C28.8418 10.2852 30 13.9121 30 18.623V28.25H29.9933Z" fill="#F3F0ED"/>
</svg>
