<svg width="65" height="65" viewBox="0 0 65 65" fill="none" xmlns="http://www.w3.org/2000/svg">
<path d="M46.2109 0H18.7891C17.3076 0 15.8868 0.588517 14.8392 1.63608C13.7916 2.68365 13.2031 4.10445 13.2031 5.58594V59.4141C13.2031 60.8955 13.7916 62.3163 14.8392 63.3639C15.8868 64.4115 17.3076 65 18.7891 65H46.2109C47.6924 65 49.1132 64.4115 50.1608 63.3639C51.2084 62.3163 51.7969 60.8955 51.7969 59.4141V5.58594C51.7969 4.10445 51.2084 2.68365 50.1608 1.63608C49.1132 0.588517 47.6924 0 46.2109 0ZM16.25 11.5223H48.75V50.568H16.25V11.5223ZM18.7891 3.04688H46.2109C46.5444 3.04688 46.8745 3.11255 47.1826 3.24015C47.4906 3.36775 47.7706 3.55478 48.0063 3.79055C48.2421 4.02632 48.4291 4.30623 48.5567 4.61428C48.6843 4.92233 48.75 5.2525 48.75 5.58594V8.47539H16.25V5.58594C16.25 4.91254 16.5175 4.26672 16.9937 3.79055C17.4698 3.31438 18.1157 3.04688 18.7891 3.04688ZM46.2109 61.9531H18.7891C18.1157 61.9531 17.4698 61.6856 16.9937 61.2095C16.5175 60.7333 16.25 60.0875 16.25 59.4141V53.6148H48.75V59.4141C48.75 59.7475 48.6843 60.0777 48.5567 60.3857C48.4291 60.6938 48.2421 60.9737 48.0063 61.2095C47.7706 61.4452 47.4906 61.6323 47.1826 61.7599C46.8745 61.8875 46.5444 61.9531 46.2109 61.9531Z" fill="#F3F0ED"/>
<path d="M32.5 60.8918C34.1827 60.8918 35.5469 59.5277 35.5469 57.845C35.5469 56.1622 34.1827 54.7981 32.5 54.7981C30.8173 54.7981 29.4531 56.1622 29.4531 57.845C29.4531 59.5277 30.8173 60.8918 32.5 60.8918Z" fill="#F3F0ED"/>
<path d="M28.5035 7.22119H36.5016C36.9056 7.22119 37.2931 7.06069 37.5788 6.77499C37.8645 6.48929 38.025 6.10179 38.025 5.69775C38.025 5.29371 37.8645 4.90622 37.5788 4.62052C37.2931 4.33482 36.9056 4.17432 36.5016 4.17432H28.5035C28.0995 4.17432 27.712 4.33482 27.4263 4.62052C27.1406 4.90622 26.9801 5.29371 26.9801 5.69775C26.9801 6.10179 27.1406 6.48929 27.4263 6.77499C27.712 7.06069 28.0995 7.22119 28.5035 7.22119Z" fill="#F3F0ED"/>
</svg>
