<svg width="32" height="32" viewBox="0 0 32 32" fill="none" xmlns="http://www.w3.org/2000/svg">
<g clip-path="url(#clip0_268_102)">
<path d="M21.875 7.56806C21.719 7.56806 21.615 7.58906 21.51 7.61506V7.63106H21.526C21.599 7.76606 21.719 7.87106 21.812 7.99606C21.885 8.13706 21.947 8.28206 22.015 8.42306L22.036 8.40206C22.161 8.31306 22.224 8.17306 22.224 7.95906C22.172 7.89606 22.161 7.82906 22.115 7.77106C22.063 7.68206 21.948 7.63606 21.875 7.56806ZM7.693 25.1611H6.459C6.4219 23.1969 6.30212 21.2352 6.1 19.2811H6.09L4.21 25.1611H3.267L1.402 19.2811H1.386C1.24108 21.238 1.15437 23.1989 1.126 25.1611H0.000999451C0.0619481 22.6952 0.244503 20.2339 0.547999 17.7861H2.079L3.86 23.2031H3.87L5.667 17.7861H7.125C7.449 20.4741 7.64 22.9324 7.698 25.1611H7.693ZM13.047 19.7191C12.547 22.4481 11.88 24.4331 11.063 25.6671C10.4177 26.6204 9.71267 27.0977 8.948 27.0991C8.746 27.0991 8.49433 27.0364 8.193 26.9111V26.2551C8.344 26.2761 8.516 26.2911 8.709 26.2911C9.068 26.2911 9.355 26.1871 9.574 25.9941C9.834 25.7541 9.96433 25.4851 9.965 25.1871C9.965 24.9791 9.866 24.5621 9.658 23.9271L8.309 19.7191H9.523L10.492 22.8651C10.711 23.5841 10.805 24.0791 10.763 24.3651C11.299 22.9481 11.669 21.3961 11.878 19.7191H13.047ZM29.484 25.1611H25.974V17.7861H27.156V24.2551H29.484V25.1611ZM25.057 25.3391L23.703 24.6721C23.823 24.5741 23.936 24.4631 24.042 24.3391C24.62 23.6671 24.907 22.6621 24.907 21.3391C24.907 18.8971 23.9487 17.6767 22.032 17.6781C21.0933 17.6767 20.3607 17.9857 19.834 18.6051C19.261 19.2821 18.969 20.2821 18.969 21.6001C18.969 22.8971 19.224 23.8451 19.735 24.4541C20.204 24.9961 20.907 25.2721 21.85 25.2721C22.2 25.2727 22.5213 25.2294 22.814 25.1421L24.58 26.1731L25.064 25.3401L25.057 25.3391ZM20.667 23.6821C20.365 23.2031 20.219 22.4321 20.219 21.3691C20.2183 19.5111 20.7827 18.5824 21.912 18.5831C22.501 18.5831 22.938 18.8071 23.214 19.2501C23.511 19.7341 23.662 20.4951 23.662 21.5471C23.662 23.4171 23.094 24.3601 21.969 24.3601C21.375 24.3601 20.943 24.1361 20.662 23.6931L20.667 23.6821ZM18.458 23.1201C18.458 23.7451 18.229 24.2611 17.765 24.6561C17.307 25.0571 16.697 25.2601 15.921 25.2601C15.197 25.2601 14.504 25.0311 13.822 24.5721L14.14 23.9371C14.723 24.2291 15.249 24.3751 15.729 24.3751C16.173 24.3744 16.5203 24.2771 16.771 24.0831C17.021 23.8851 17.172 23.6091 17.172 23.2601C17.172 22.8221 16.865 22.4471 16.307 22.1351C15.791 21.8491 14.755 21.2601 14.755 21.2601C14.192 20.8491 13.916 20.4111 13.916 19.6871C13.916 19.0891 14.1243 18.6081 14.541 18.2441C14.963 17.8691 15.499 17.6871 16.166 17.6871C16.8296 17.6813 17.4801 17.8716 18.036 18.2341L17.75 18.8691C17.3034 18.6717 16.8213 18.5672 16.333 18.5621C15.953 18.5634 15.6613 18.6554 15.458 18.8381C15.153 19.1121 15.13 19.2491 15.13 19.5361C15.13 19.9741 15.443 20.3491 16.015 20.6711C16.541 20.9571 17.598 21.5621 17.598 21.5621C18.176 21.9681 18.463 22.4061 18.463 23.1191L18.458 23.1201ZM30.964 15.3131C30.25 15.2971 29.698 15.3701 29.235 15.5681C29.105 15.6201 28.891 15.6201 28.87 15.7871C28.943 15.8601 28.953 15.9751 29.016 16.0731C29.125 16.2501 29.308 16.4901 29.48 16.6151C29.668 16.7611 29.855 16.9071 30.048 17.0321C30.397 17.2461 30.788 17.3711 31.131 17.5841C31.324 17.7091 31.522 17.8701 31.714 18.0011C31.813 18.0691 31.875 18.1891 32 18.2301V18.2041C31.937 18.1261 31.922 18.0111 31.859 17.9181C31.77 17.8291 31.682 17.7511 31.593 17.6631C31.3323 17.3167 31.0196 17.0128 30.666 16.7621C30.38 16.5691 29.755 16.2981 29.64 15.9701L29.624 15.9491C29.817 15.9331 30.046 15.8601 30.233 15.8081C30.535 15.7301 30.816 15.7451 31.129 15.6671C31.2726 15.6299 31.415 15.5882 31.556 15.5421V15.4641C31.395 15.3031 31.275 15.0841 31.108 14.9331C30.6469 14.5315 30.1558 14.1658 29.639 13.8391C29.358 13.6571 29.004 13.5421 28.707 13.3911C28.603 13.3391 28.421 13.3131 28.363 13.2241C28.202 13.0261 28.108 12.7711 27.993 12.5361C27.7316 12.0276 27.4884 11.5099 27.264 10.9841C27.103 10.6351 27.009 10.2911 26.811 9.96806C25.894 8.45206 24.894 7.53606 23.363 6.63506C23.035 6.44706 22.639 6.36906 22.222 6.27006C21.998 6.26006 21.779 6.24406 21.555 6.23406C21.409 6.17106 21.269 6.00506 21.144 5.92106C20.634 5.59806 19.321 4.90506 18.951 5.82206C18.711 6.40506 19.305 6.97306 19.514 7.26506C19.665 7.47306 19.858 7.70306 19.967 7.93206C20.03 8.08806 20.045 8.25006 20.108 8.41106C20.249 8.80206 20.384 9.23906 20.572 9.60406C20.671 9.79206 20.775 9.98906 20.9 10.1561C20.973 10.2551 21.098 10.2971 21.124 10.4581C20.999 10.6401 20.989 10.9061 20.921 11.1251C20.598 12.1351 20.723 13.3801 21.176 14.1251C21.322 14.3491 21.66 14.8391 22.114 14.6511C22.515 14.4901 22.427 13.9841 22.541 13.5361C22.567 13.4271 22.551 13.3591 22.604 13.2861V13.3071C22.734 13.5571 22.859 13.7971 22.974 14.0471C23.245 14.4851 23.729 14.9381 24.13 15.2401C24.344 15.4011 24.51 15.6781 24.776 15.7761V15.7501H24.755C24.698 15.6721 24.625 15.6351 24.552 15.5731C24.3831 15.4058 24.2264 15.2266 24.083 15.0371C23.713 14.5371 23.38 13.9851 23.088 13.4171C22.9475 13.1363 22.819 12.8498 22.703 12.5581C22.651 12.4541 22.651 12.2921 22.562 12.2401C22.427 12.4331 22.229 12.5991 22.135 12.8441C21.963 13.2241 21.947 13.6981 21.88 14.1881C21.849 14.1981 21.864 14.1881 21.849 14.2091C21.563 14.1361 21.464 13.8441 21.359 13.5941C21.088 12.9591 21.046 11.9431 21.276 11.2141C21.339 11.0261 21.604 10.4381 21.5 10.2611C21.443 10.0891 21.266 9.99006 21.172 9.85506C21.052 9.68806 20.932 9.47506 20.849 9.28706C20.635 8.78706 20.531 8.23506 20.297 7.73506C20.193 7.50606 20.005 7.26606 19.854 7.05306C19.682 6.81306 19.495 6.64206 19.364 6.36006C19.317 6.26106 19.255 6.10006 19.328 5.99506C19.344 5.92206 19.38 5.89606 19.453 5.87506C19.568 5.77606 19.901 5.90106 20.016 5.95806C20.344 6.08806 20.62 6.21306 20.896 6.40106C21.021 6.49006 21.156 6.65606 21.318 6.70306H21.506C21.792 6.76606 22.11 6.71906 22.376 6.80206C22.85 6.95306 23.277 7.17206 23.662 7.41106C24.8395 8.16675 25.797 9.21944 26.438 10.4631C26.547 10.6661 26.594 10.8541 26.693 11.0671C26.875 11.5101 27.11 11.9521 27.297 12.3741C27.484 12.7961 27.662 13.2231 27.932 13.5721C28.067 13.7601 28.599 13.8581 28.843 13.9521C29.02 14.0351 29.296 14.1081 29.452 14.2021C29.759 14.3901 30.061 14.6031 30.348 14.8111C30.494 14.9101 30.937 15.1341 30.963 15.3111L30.964 15.3131Z" fill="black"/>
</g>
<defs>
<clipPath id="clip0_268_102">
<rect width="32" height="32" fill="white"/>
</clipPath>
</defs>
</svg>
