<svg width="40" height="40" viewBox="0 0 40 40" fill="none" xmlns="http://www.w3.org/2000/svg">
<path d="M19.7687 35.3125C19.6375 35.3125 19.5063 35.2656 19.3875 35.1875L18.1875 34.2968C18.0063 34.1718 18.0938 34.125 18.1562 34.1015C18.3937 34 18.4438 33.9765 18.7 33.789C18.725 33.7734 18.7625 33.7812 18.7875 33.7968L19.7125 34.4843C19.7437 34.5078 19.7938 34.5078 19.825 34.4843L23.4375 31.875C23.4688 31.8515 23.4937 31.8047 23.4937 31.75V26.539C23.4937 26.4843 23.475 26.4375 23.4375 26.414L19.825 23.8125C19.7938 23.789 19.75 23.789 19.7125 23.8125L16.1 26.414C16.0625 26.4375 16.0438 26.4922 16.0438 26.539V31.75C16.0438 31.7968 16.0688 31.8437 16.1 31.8672L17.0875 32.5781C17.625 32.914 17.9562 32.5156 17.9562 32.125V26.9765C17.9562 26.9062 18 26.8437 18.0625 26.8437H18.5187C18.575 26.8437 18.625 26.8984 18.625 26.9765V32.125C18.625 33.0234 18.2375 33.5312 17.5562 33.5312C17.35 33.5312 17.1812 33.5312 16.725 33.25L15.775 32.5703C15.5437 32.3984 15.3938 32.0859 15.3938 31.75V26.539C15.3938 26.2031 15.5375 25.8828 15.775 25.7187L19.3875 23.1093C19.6188 22.9453 19.9187 22.9453 20.1437 23.1093L23.7563 25.7187C23.9875 25.8906 24.1375 26.2031 24.1375 26.539V31.75C24.1375 32.0859 23.9937 32.4062 23.7563 32.5703L20.1437 35.1796C20.0375 35.2656 19.9062 35.3125 19.7687 35.3125ZM22.6875 30.1718C22.6875 29.1953 22.1625 28.9375 21.05 28.75C19.925 28.5625 19.8125 28.4687 19.8125 28.1406C19.8125 27.8672 19.9062 27.5078 20.7375 27.5078C21.4812 27.5078 21.7563 27.7109 21.8687 28.3359C21.8813 28.3984 21.9188 28.4375 21.9688 28.4375H22.4375C22.4688 28.4375 22.4938 28.4218 22.5125 28.3984C22.5312 28.3672 22.5438 28.3359 22.5375 28.2968C22.4625 27.2187 21.8937 26.7187 20.7375 26.7187C19.7062 26.7187 19.0938 27.2656 19.0938 28.1718C19.0938 29.164 19.7063 29.4296 20.6938 29.5546C21.875 29.7031 21.9688 29.914 21.9688 30.2031C21.9688 30.7109 21.6438 30.9218 20.8813 30.9218C19.925 30.9218 19.7125 30.625 19.6437 30.0312C19.6375 29.9687 19.5938 29.9218 19.5375 29.9218H19.0688C19.0125 29.9218 18.9625 29.9765 18.9625 30.0547C18.9625 30.8125 19.2938 31.7187 20.875 31.7187C22.0312 31.7187 22.6875 31.1562 22.6875 30.1718ZM26.0938 26.2578C26.0938 26.7343 25.7812 27.125 25.4 27.125C25.0187 27.125 24.7062 26.7343 24.7062 26.2578C24.7062 25.7656 25.0312 25.3906 25.4 25.3906C25.775 25.3828 26.0938 25.7656 26.0938 26.2578ZM25.9813 26.2578C25.9813 25.8515 25.7188 25.5312 25.3937 25.5312C25.075 25.5312 24.8125 25.8515 24.8125 26.2578C24.8125 26.664 25.075 26.9922 25.3937 26.9922C25.7188 26.9843 25.9813 26.6562 25.9813 26.2578ZM25.7 26.7421H25.5375C25.5312 26.6953 25.5063 26.4453 25.5063 26.4375C25.4937 26.3828 25.4812 26.3515 25.425 26.3515H25.2875V26.7421H25.1375V25.7656H25.4062C25.5 25.7656 25.6812 25.7656 25.6812 26.0234C25.6812 26.2031 25.5875 26.2422 25.5312 26.2656C25.6375 26.2734 25.6438 26.3593 25.6625 26.4843C25.6688 26.5625 25.6813 26.6953 25.7 26.7421ZM25.525 26.0547C25.525 25.9218 25.45 25.9218 25.4125 25.9218H25.2875V26.1953H25.4062C25.5063 26.1953 25.525 26.1093 25.525 26.0547ZM8.58125 14.9218C8.58125 14.7109 8.49375 14.5234 8.35 14.4218L4.51875 11.664C4.45625 11.6172 4.38125 11.5937 4.30625 11.5859H4.26875C4.19375 11.5859 4.125 11.6172 4.05625 11.664L0.23125 14.4218C0.0875 14.5234 0 14.7187 0 14.9218L0.00625 22.3437C0.00625 22.4453 0.05 22.539 0.11875 22.5937C0.1875 22.6484 0.275 22.6484 0.35 22.5937L2.625 20.9609C2.76875 20.8515 2.85625 20.664 2.85625 20.4609V16.9922C2.85625 16.789 2.94375 16.5937 3.0875 16.4922L4.05625 15.7968C4.13125 15.7422 4.20625 15.7187 4.2875 15.7187C4.36875 15.7187 4.45 15.7422 4.51875 15.7968L5.4875 16.4922C5.63125 16.5937 5.71875 16.789 5.71875 16.9922V20.4609C5.71875 20.664 5.80625 20.8593 5.95 20.9609L8.225 22.5937C8.29375 22.6484 8.3875 22.6484 8.45625 22.5937C8.525 22.5468 8.56875 22.4453 8.56875 22.3437L8.58125 14.9218ZM29.5312 6.82028V20.6015C29.5312 20.8047 29.4437 21 29.3 21.1015L25.4688 23.8672C25.325 23.9687 25.15 23.9687 25.0063 23.8672L21.175 21.1015C21.0312 21 20.9438 20.8047 20.9438 20.6015V15.0703C20.9438 14.8672 21.0312 14.6718 21.175 14.5703L25.0063 11.8047C25.15 11.7031 25.325 11.7031 25.4688 11.8047L26.425 12.4922C26.5312 12.5703 26.6688 12.4687 26.6688 12.3203V4.97653C26.6688 4.75778 26.8563 4.61715 27.0125 4.72653L29.2938 6.32028C29.4375 6.41403 29.5312 6.60934 29.5312 6.82028ZM26.6562 16.8906C26.6562 16.8359 26.6313 16.789 26.6 16.7656L25.2875 15.8125C25.25 15.789 25.2063 15.789 25.1688 15.8125L23.8563 16.7656C23.8188 16.789 23.8 16.8359 23.8 16.8906V18.789C23.8 18.8437 23.825 18.8906 23.8563 18.914L25.1688 19.8593C25.2063 19.8828 25.25 19.8828 25.2812 19.8593L26.5938 18.914C26.6313 18.8906 26.65 18.8437 26.65 18.789V16.8906H26.6562ZM39.7687 16.8359C39.9125 16.7343 40 16.539 40 16.3359V15C40 14.7968 39.9125 14.6015 39.7687 14.5L35.9625 11.7343C35.8188 11.6328 35.6437 11.6328 35.5 11.7343L31.6688 14.5C31.525 14.6015 31.4375 14.7968 31.4375 15V20.5312C31.4375 20.7422 31.525 20.9297 31.6688 21.0312L35.475 23.7422C35.6125 23.8437 35.7875 23.8437 35.9313 23.7422L38.2313 22.1406C38.3875 22.0312 38.3875 21.75 38.2313 21.6406L34.375 18.875C34.3 18.8203 34.2562 18.7265 34.2562 18.625V16.8906C34.2562 16.789 34.3 16.6953 34.375 16.6406L35.575 15.7734C35.6437 15.7187 35.7375 15.7187 35.8063 15.7734L37.0062 16.6406C37.075 16.6953 37.125 16.789 37.125 16.8906V18.25C37.125 18.4687 37.3187 18.6093 37.475 18.5L39.7687 16.8359ZM34.9375 17.1093C34.9125 17.1328 34.8937 17.164 34.8937 17.2031V18.2656C34.8937 18.3047 34.9125 18.3437 34.9375 18.3593L35.675 18.8906C35.7 18.914 35.7375 18.914 35.7625 18.8906L36.5 18.3593C36.525 18.3359 36.5438 18.3047 36.5438 18.2656V17.2031C36.5438 17.164 36.525 17.125 36.5 17.1093L35.7625 16.5781C35.7375 16.5547 35.7 16.5547 35.675 16.5781L34.9375 17.1093ZM19.05 20.5078V15.0078C19.05 14.8047 18.95 14.6093 18.8062 14.5078L14.9875 11.7578C14.8562 11.664 14.675 11.6484 14.525 11.7578L10.7063 14.5078C10.5625 14.6093 10.4625 14.7968 10.4625 15.0078V20.5078C10.4625 20.7265 10.5812 20.914 10.7125 21.0078L14.5375 23.7578C14.6875 23.8672 14.8625 23.8593 15 23.7578L18.8125 21.0078C18.925 20.9297 19.0063 20.7968 19.0375 20.6406C19.0438 20.6015 19.05 20.5547 19.05 20.5078ZM14.4062 10.75L14.3562 10.789H14.425L14.4062 10.75ZM19.1688 20.9218L19.1437 20.8672V20.9375L19.1688 20.9218Z" fill="black"/>
</svg>
