<svg width="32" height="32" viewBox="0 0 32 32" fill="none" xmlns="http://www.w3.org/2000/svg">
<path d="M9.349 13.609H8.088L7.401 17.14H8.521C9.26 17.14 9.812 17 10.177 16.719C10.536 16.443 10.781 15.974 10.906 15.323C11.03 14.698 10.973 14.255 10.745 13.995C10.51 13.74 10.046 13.609 9.349 13.609ZM16 7.58398C7.161 7.58398 0 11.355 0 16C0 20.645 7.161 24.416 16 24.416C24.839 24.416 32 20.645 32 16C32 11.355 24.839 7.58398 16 7.58398ZM11.651 17.521C11.307 17.854 10.886 18.104 10.432 18.254C9.984 18.395 9.412 18.473 8.719 18.473H7.14L6.708 20.713H4.869L6.51 12.281H10.041C11.104 12.281 11.88 12.557 12.369 13.114C12.854 13.671 13.005 14.453 12.806 15.453C12.734 15.849 12.593 16.229 12.401 16.584C12.208 16.921 11.964 17.235 11.65 17.521H11.651ZM17.021 18.473L17.745 14.74C17.828 14.317 17.797 14.027 17.65 13.869C17.51 13.718 17.202 13.64 16.734 13.64H15.281L14.344 18.473H12.516L14.156 10.036H15.979L15.542 12.281H17.167C18.194 12.281 18.896 12.458 19.282 12.812C19.673 13.172 19.787 13.749 19.637 14.547L18.87 18.474L17.021 18.473ZM27.145 15.453C27.073 15.849 26.937 16.229 26.74 16.584C26.552 16.921 26.303 17.235 25.995 17.521C25.646 17.849 25.23 18.104 24.771 18.254C24.323 18.395 23.75 18.473 23.058 18.473H21.485L21.048 20.713H19.209L20.85 12.281H24.381C25.444 12.281 26.22 12.557 26.709 13.12C27.194 13.672 27.344 14.453 27.145 15.453ZM23.688 13.609H22.432L21.745 17.14H22.86C23.604 17.14 24.156 17 24.516 16.719C24.88 16.443 25.125 15.974 25.251 15.323C25.375 14.698 25.318 14.255 25.083 13.995C24.855 13.74 24.386 13.609 23.688 13.609Z" fill="black"/>
</svg>
