<svg width="40" height="40" viewBox="0 0 40 40" fill="none" xmlns="http://www.w3.org/2000/svg">
<path d="M37.125 20C37.125 17.625 34.375 15.625 30 14.375C31.125 10 30.75 6.625 28.75 5.375C28.25 5.125 27.75 5 27.125 5C25.25 5 22.75 6.375 20.25 8.75C17.75 6.375 15.375 5 13.375 5C12.75 5 12.25 5.125 11.75 5.375C9.875 6.625 9.5 10 10.5 14.375C6.25 15.625 3.375 17.75 3.375 20C3.375 22.375 6.125 24.375 10.5 25.625C9.5 30 9.875 33.5 11.875 34.625C12.375 34.875 12.875 35 13.5 35C15.375 35 17.875 33.625 20.375 31.25C22.875 33.625 25.25 35 27.25 35C27.875 35 28.375 34.875 28.875 34.625C30.875 33.5 31.25 30 30.25 25.625C34.375 24.375 37.125 22.25 37.125 20ZM27.125 6.625C27.5 6.625 27.75 6.625 27.875 6.875C28.875 7.375 29.25 9.375 28.875 12C28.75 12.625 28.625 13.375 28.5 14C27.125 13.625 25.75 13.5 24.125 13.25C23.25 12 22.375 10.875 21.375 9.875C23.625 7.75 25.75 6.625 27.125 6.625ZM24.875 22.625C24.375 23.5 23.875 24.375 23.25 25.125C22.25 25.25 21.25 25.25 20.25 25.25C19.25 25.25 18.25 25.25 17.25 25.125C16.75 24.375 16.25 23.5 15.625 22.625C15.125 21.75 14.625 20.875 14.25 20C14.625 19.125 15.125 18.25 15.625 17.375C16.125 16.5 16.75 15.625 17.25 14.75C18.25 14.625 19.25 14.625 20.25 14.625C21.25 14.625 22.25 14.625 23.25 14.75C23.75 15.5 24.375 16.375 24.875 17.375C25.375 18.25 25.875 19.125 26.25 20C25.875 20.875 25.375 21.75 24.875 22.625ZM27.125 21.875C27.5 22.75 27.75 23.625 28 24.375C27.125 24.625 26.25 24.75 25.375 24.875C25.625 24.375 26 23.875 26.25 23.375C26.625 23 26.875 22.375 27.125 21.875ZM20.25 29C19.625 28.375 19 27.625 18.5 26.875C19.125 26.875 19.75 26.875 20.25 26.875C20.875 26.875 21.5 26.875 22 26.875C21.5 27.625 20.875 28.375 20.25 29ZM15.125 25C14.25 24.875 13.375 24.75 12.5 24.5C12.75 23.625 13.125 22.75 13.375 22C13.625 22.5 13.875 23 14.25 23.5C14.625 24 14.875 24.5 15.125 25ZM13.375 18.125C13 17.25 12.75 16.375 12.375 15.5C13.25 15.25 14.125 15.125 15.125 15C14.75 15.5 14.5 16 14.125 16.5C14 17.125 13.75 17.625 13.375 18.125ZM20.25 11C20.875 11.625 21.375 12.375 22 13C21.375 13 20.875 13 20.25 13C19.625 13 19.125 13 18.5 13C19.125 12.375 19.75 11.625 20.25 11ZM26.25 16.5C25.875 16 25.625 15.5 25.25 15C26.25 15.125 27.125 15.25 28 15.5C27.75 16.375 27.375 17.25 27 18.125C26.875 17.625 26.625 17.125 26.25 16.5ZM11.75 11.875C11.375 9.25 11.75 7.375 12.75 6.75C13 6.625 13.25 6.5 13.5 6.5C14.875 6.5 16.875 7.625 19.125 9.75C18.25 10.75 17.25 11.875 16.375 13.125C14.875 13.25 13.375 13.5 12 13.875C11.875 13.25 11.75 12.5 11.75 11.875ZM9 23.375C6.625 22.375 5 21 5 20C5 18.875 6.5 17.625 8.875 16.625C9.5 16.375 10.125 16.125 10.875 16C11.25 17.375 11.75 18.75 12.5 20.125C11.875 21.5 11.375 22.875 11 24.125C10.25 23.875 9.625 23.625 9 23.375ZM12.625 33.25C11.625 32.75 11.25 30.75 11.625 28.125C11.75 27.5 11.875 26.75 12 26C13.375 26.25 14.75 26.5 16.25 26.625C17.125 27.875 18.125 29 19 30C16.75 32.125 14.75 33.25 13.375 33.25C13.125 33.375 12.875 33.25 12.625 33.25ZM28.875 28.125C29.25 30.75 28.875 32.625 27.875 33.25C27.625 33.375 27.375 33.5 27.125 33.5C25.75 33.5 23.75 32.375 21.5 30.25C22.5 29.25 23.375 28.125 24.25 26.875C25.75 26.75 27.25 26.5 28.5 26.25C28.625 26.75 28.75 27.375 28.875 28.125ZM31.625 23.375C31 23.625 30.375 23.875 29.625 24C29.25 22.75 28.75 21.375 28.125 20C28.75 18.625 29.25 17.25 29.75 15.875C30.375 16.125 31.125 16.25 31.75 16.5C34.125 17.5 35.625 18.75 35.625 19.875C35.5 21 34 22.375 31.625 23.375Z" fill="black"/>
<path d="M20.375 23.125C22.125 23.125 23.5 21.75 23.5 20C23.5 18.25 22.125 16.875 20.375 16.875C18.625 16.875 17.25 18.25 17.25 20C17.25 21.75 18.625 23.125 20.375 23.125Z" fill="black"/>
</svg>
