<svg width="65" height="65" viewBox="0 0 65 65" fill="none" xmlns="http://www.w3.org/2000/svg">
<g clip-path="url(#clip0_287_9)">
<path d="M58.5 62.8H42.5C42.1 62.8 41.7 63.1 41.7 63.6C41.7 64.1 42 64.4001 42.5 64.4001H58.5C58.9 64.4001 59.3 64.1 59.3 63.6C59.3 63.1 58.9 62.8 58.5 62.8Z" fill="#F3F0ED"/>
<path d="M64.5 62.8H62.5C62.1 62.8 61.7 63.1 61.7 63.6C61.7 64.1 62 64.4001 62.5 64.4001H64.5C64.9 64.4001 65.3 64.1 65.3 63.6C65.3 63.1 64.9 62.8 64.5 62.8Z" fill="#F3F0ED"/>
<path d="M30.5 6.29995H43.5C43.9 6.29995 44.3 5.99995 44.3 5.49995C44.3 4.99995 44 4.69995 43.5 4.69995H30.5C30.1 4.69995 29.7 4.99995 29.7 5.49995C29.7 5.99995 30.1 6.29995 30.5 6.29995Z" fill="#F3F0ED"/>
<path d="M47.5 6.29995H48.5C48.9 6.29995 49.3 5.99995 49.3 5.49995C49.3 4.99995 49 4.69995 48.5 4.69995H47.5C47.1 4.69995 46.7 4.99995 46.7 5.49995C46.7 5.99995 47.1 6.29995 47.5 6.29995Z" fill="#F3F0ED"/>
<path d="M0.500012 4.29995H1.80001V5.59995C1.80001 5.99995 2.10001 6.39995 2.60001 6.39995C3.10001 6.39995 3.40001 6.09995 3.40001 5.59995V4.29995H4.70001C5.10001 4.29995 5.50001 3.99995 5.50001 3.49995C5.50001 2.99995 4.90001 2.79995 4.50001 2.79995H3.30001V1.49995C3.30001 1.09995 3.00001 0.699951 2.50001 0.699951C2.00001 0.699951 1.80001 1.09995 1.80001 1.49995V2.79995H0.500012C0.100012 2.79995 -0.299988 3.09995 -0.299988 3.59995C-0.299988 4.09995 0.100012 4.29995 0.500012 4.29995Z" fill="#F3F0ED"/>
<path d="M63.3 59.5V9.49995C63.3 9.09995 63 8.69995 62.5 8.69995H0.500012C0.100012 8.69995 -0.299988 8.99995 -0.299988 9.49995V59.5C-0.299988 59.9 1.2219e-05 60.2999 0.500012 60.2999H62.5C62.9 60.2999 63.3 59.9 63.3 59.5ZM61.8 16.8H23.3V10.3H61.8V16.8ZM1.30001 10.3H21.8V16.8H1.30001V10.3ZM61.8 58.7999H1.30001V18.3H61.8V58.7999Z" fill="#F3F0ED"/>
<path d="M3.80002 21.5V55.5C3.80002 55.9 4.10002 56.2999 4.60002 56.2999H58.6C59 56.2999 59.4 56 59.4 55.5V21.5C59.4 21.1 59.1 20.7 58.6 20.7H4.60002C4.10002 20.8 3.80002 21.1 3.80002 21.5ZM5.30002 22.2999H57.8V54.7999H5.30002V22.2999Z" fill="#F3F0ED"/>
<path d="M6.5 14.5C7.05228 14.5 7.5 14.0523 7.5 13.5C7.5 12.9477 7.05228 12.5 6.5 12.5C5.94772 12.5 5.5 12.9477 5.5 13.5C5.5 14.0523 5.94772 14.5 6.5 14.5Z" fill="#F3F0ED"/>
<path d="M11.5 14.5C12.0523 14.5 12.5 14.0523 12.5 13.5C12.5 12.9477 12.0523 12.5 11.5 12.5C10.9477 12.5 10.5 12.9477 10.5 13.5C10.5 14.0523 10.9477 14.5 11.5 14.5Z" fill="#F3F0ED"/>
<path d="M16.5 14.5C17.0523 14.5 17.5 14.0523 17.5 13.5C17.5 12.9477 17.0523 12.5 16.5 12.5C15.9477 12.5 15.5 12.9477 15.5 13.5C15.5 14.0523 15.9477 14.5 16.5 14.5Z" fill="#F3F0ED"/>
<path d="M27.5 14.3H57.5C57.9 14.3 58.3 14 58.3 13.5C58.3 13 58 12.7 57.5 12.7H27.5C27.1 12.7 26.7 13 26.7 13.5C26.7 14 27.1 14.3 27.5 14.3Z" fill="#F3F0ED"/>
<path d="M42.5 29.8C39.9 29.8 37.7 32 37.7 34.6C37.7 35 38 35.4001 38.5 35.4001C39 35.4001 39.3 35.1 39.3 34.6C39.3 32.8 40.8 31.3 42.6 31.3C43 31.3 43.4 31 43.4 30.5C43.4 30 43 29.8 42.5 29.8Z" fill="#F3F0ED"/>
<path d="M49.3 40.2C52.2 36.7 52 31.6 48.8 28.3C45.4 24.9 39.8 24.9 36.4 28.3C36 28.7 35.6 29.2 35.2 29.7H8.50001C8.10001 29.7 7.70001 30 7.70001 30.5V38.5C7.70001 38.9 8.00001 39.3 8.50001 39.3H35.1C35.4 39.8 35.8 40.3 36.3 40.8C38 42.5 40.3 43.4 42.5 43.4C44.5 43.4 46.5 42.7 48.2 41.3L54 47C54.1 47.1 54.3 47.2 54.5 47.2C54.7 47.2 54.9 47.1 55 47C55.3 46.7 55.3 46.2 55 45.9L49.3 40.2ZM9.30001 37.8V31.3H34.4C33.6 33.4 33.6 35.7 34.4 37.8H9.30001ZM37.4 39.7C34.6 36.9 34.6 32.2 37.4 29.4C38.8 28 40.7 27.3 42.6 27.3C44.5 27.3 46.3 28 47.8 29.4C50.6 32.2 50.6 36.9 47.8 39.7C44.9 42.5 40.2 42.5 37.4 39.7Z" fill="#F3F0ED"/>
<path d="M31.5 43.8H15.5C15.1 43.8 14.7 44.1 14.7 44.6C14.7 45.1 15 45.4001 15.5 45.4001H31.5C31.9 45.4001 32.3 45.1 32.3 44.6C32.3 44.1 31.9 43.8 31.5 43.8Z" fill="#F3F0ED"/>
<path d="M28.5 47.8H18.5C18.1 47.8 17.7 48.1 17.7 48.6C17.7 49.1 18 49.4001 18.5 49.4001H28.5C28.9 49.4001 29.3 49.1 29.3 48.6C29.3 48.1 28.9 47.8 28.5 47.8Z" fill="#F3F0ED"/>
</g>
<defs>
<clipPath id="clip0_287_9">
<rect width="65" height="65" fill="white"/>
</clipPath>
</defs>
</svg>
